<?xml version="1.0" encoding="UTF-8" standalone="no"?>
<!-- Created with Inkscape (http://www.inkscape.org/) -->

<svg
   xmlns:dc="http://purl.org/dc/elements/1.1/"
   xmlns:cc="http://creativecommons.org/ns#"
   xmlns:rdf="http://www.w3.org/1999/02/22-rdf-syntax-ns#"
   xmlns:svg="http://www.w3.org/2000/svg"
   xmlns="http://www.w3.org/2000/svg"
   xmlns:sodipodi="http://sodipodi.sourceforge.net/DTD/sodipodi-0.dtd"
   xmlns:inkscape="http://www.inkscape.org/namespaces/inkscape"
   version="1.1"
   id="svg881"
   xml:space="preserve"
   width="422.45905"
   height="755.11328"
   viewBox="0 0 422.45904 755.11325"
   sodipodi:docname="cloud.svg"
   inkscape:version="0.92.4 (5da689c313, 2019-01-14)"><metadata
     id="metadata887"><rdf:RDF><cc:Work
         rdf:about=""><dc:format>image/svg+xml</dc:format><dc:type
           rdf:resource="http://purl.org/dc/dcmitype/StillImage" /><dc:title></dc:title></cc:Work></rdf:RDF></metadata><defs
     id="defs885"><clipPath
       clipPathUnits="userSpaceOnUse"
       id="clipPath897"><path
         d="M 0,800 H 800 V 0 H 0 Z"
         id="path895"
         inkscape:connector-curvature="0" /></clipPath></defs><sodipodi:namedview
     pagecolor="#ffffff"
     bordercolor="#666666"
     borderopacity="1"
     objecttolerance="10"
     gridtolerance="10"
     guidetolerance="10"
     inkscape:pageopacity="0"
     inkscape:pageshadow="2"
     inkscape:window-width="1920"
     inkscape:window-height="1017"
     id="namedview883"
     showgrid="false"
     inkscape:zoom="0.88499993"
     inkscape:cx="347.8635"
     inkscape:cy="452.02206"
     inkscape:window-x="1272"
     inkscape:window-y="-8"
     inkscape:window-maximized="1"
     inkscape:current-layer="g889" /><g
     id="g889"
     inkscape:groupmode="layer"
     inkscape:label="9123"
     transform="matrix(1.3333333,0,0,-1.3333333,-326.83342,908.11975)"><path
       style="fill:#999999;fill-opacity:1;fill-rule:evenodd;stroke:#a4a4a4;stroke-width:0.75;stroke-linejoin:round;stroke-miterlimit:4;stroke-dasharray:none;stroke-opacity:1"
       d="m 402.58319,681.17499 c -46.87698,-0.39114 -93.38453,-15.57832 -131.43661,-42.97137 -5.55641,-5.40468 -13.72433,-2.18271 -20.66379,-3.01875 -8.57444,0.34833 -17.57285,-0.62329 -25.88213,0.55049 -35.28877,26.13954 -78.05881,42.42928 -121.94963,45.16818 -3.999707,1.45021 -2.675237,-4.48035 -2.855207,-6.56449 0.734397,-4.17047 8.118147,-1.55818 11.756817,-2.8072 32.76403,-3.48598 64.52456,-14.85097 92.6282,-32.06664 2.90579,-2.19984 9.73159,-5.23731 9.93379,-7.10553 -8.18314,-2.17752 -16.47345,-4.13692 -24.28966,-7.46118 -24.83904,14.02153 -52.25141,23.45884 -80.64251,26.64714 -3.11013,-0.46332 -10.397947,3.61743 -9.386637,-1.86562 -0.50079,-2.58095 0.0553,-6.19493 3.404727,-6.09441 26.41482,-2.23117 53.05148,-9.93517 75.94678,-22.77212 -5.80398,-3.81951 -12.00575,-6.97102 -18.02503,-10.42936 -19.21107,8.73786 -39.95295,13.78574 -60.90771,15.93949 -0.505877,-2.54504 -1.810887,-8.75764 2.71285,-8.96947 16.71341,-1.92311 33.35163,-5.80512 48.92579,-12.19711 2.03031,-1.43573 -2.56575,-3.28442 -3.48417,-4.46405 -3.70502,-2.94063 -7.25673,-6.06569 -10.81833,-9.17637 -12.01275,3.11329 -24.17363,7.41406 -36.66579,7.45828 -2.097787,-1.765 -0.86468,-5.71744 -0.76801,-7.90519 10.38915,-1.43629 20.81651,-3.47571 30.818,-6.45524 -2.66741,-3.76696 -5.77419,-7.67496 -8.94466,-10.75708 -7.37517,1.00458 -14.96222,3.56841 -22.194447,3.47424 0.449107,-2.7234 -1.72818,-9.5664 3.389827,-8.64672 26.67096,-3.65502 52.04183,-16.82008 70.27279,-36.636 -5.24519,-2.47642 -10.88578,-3.98387 -16.33343,-5.94213 -15.26174,13.94342 -34.76318,23.73452 -55.3082,26.36223 -3.359017,-0.8097 -1.78369,-5.95712 -1.70153,-8.11044 17.34858,-2.44004 34.13569,-10.15718 47.39142,-21.51086 -3.2121,-3.33022 -8.97014,-5.16862 -13.16945,-7.78639 -10.72813,-5.40415 -20.28091,-12.7879 -30.5607,-18.87211 -1.93344,-0.4135 -4.593937,-0.59285 -3.969137,-3.41963 -0.42987,-2.57647 -0.0254,-6.21148 3.475897,-5.84779 33.30957,-5.01914 65.19968,-20.69974 88.00532,-45.71362 2.44882,-3.02213 6.21888,-5.98721 7.5025,-9.51844 -5.95839,-2.96586 -12.0033,-5.7541 -18.01013,-8.62023 -16.1164,17.61337 -36.16005,32.05025 -59.25417,38.82747 -7.08133,1.97403 -14.67764,4.52102 -21.812107,4.40611 -0.18227,-4.90447 -0.0185,-9.86485 6.314547,-9.12506 25.51603,-5.24766 49.77478,-18.45847 66.63964,-38.46499 -3.36377,-3.66041 -8.01033,-6.23782 -11.65254,-9.46769 -6.86479,5.02934 -12.59732,11.76089 -20.02083,16.19578 -12.23517,8.16387 -26.01189,14.62206 -40.76771,16.26913 -0.465037,-2.35839 -1.681947,-8.59688 2.77244,-8.53581 19.48974,-4.97779 37.58965,-15.21459 51.29933,-30.05661 -3.32907,-2.62644 -6.37465,-9.18893 -11.61613,-6.42876 -14.07073,3.0168 -28.74331,5.81595 -42.887647,6.16227 -0.0427,-4.40157 -1.44249,-10.66641 5.048337,-8.70134 39.34815,-2.77466 77.47645,-17.29626 109.9146,-39.55906 -8.3552,-2.03327 -16.61681,-4.88455 -24.82786,-7.15208 -10.76633,4.16734 -20.63042,10.64854 -31.68226,14.2908 -18.61922,7.08313 -38.30289,11.1182 -58.13005,12.77157 -0.510617,-3.69982 -1.316217,-10.62971 4.68678,-9.01621 25.88856,-2.71034 51.52296,-10.05297 74.46445,-22.54497 -5.84142,-3.88802 -12.12137,-7.04827 -18.19552,-10.54853 -19.13317,8.99353 -39.93908,13.5589 -60.85309,15.9279 -0.516047,-2.52479 -1.812377,-8.73353 2.70789,-8.93141 16.68167,-1.91294 33.35299,-5.83515 48.85792,-12.1491 1.44086,-1.14954 -2.32893,-2.88711 -2.86286,-4.01343 -3.99763,-3.12773 -7.87057,-7.74052 -12.26807,-9.41949 -11.70146,3.03018 -23.55452,6.95145 -35.69501,7.2392 -2.224557,-1.72946 -0.91188,-5.83017 -0.84249,-8.03927 10.43844,-1.34247 20.81359,-3.44049 30.88089,-6.46848 -2.74876,-3.82081 -6.20139,-7.10801 -8.76423,-11.08316 -7.33343,1.59196 -15.10404,3.96965 -22.439427,3.55701 0.357697,-2.67574 -1.58811,-9.24138 3.389827,-8.29251 26.67184,-3.65668 52.01722,-16.80973 70.27279,-36.62938 -5.21758,-2.49607 -10.83404,-4.03182 -16.25398,-6.01827 -15.28213,13.97446 -34.80988,23.80974 -55.39592,26.43009 -3.303187,-0.75195 -1.76139,-5.75355 -1.69823,-7.87043 17.15247,-3.39241 34.10178,-10.08866 47.36825,-21.67804 -1.7282,-2.57312 -6.36924,-3.92685 -9.24959,-5.79029 -11.96054,-5.87943 -22.79257,-13.70603 -34.02703,-20.75069 -1.91733,-0.7712 -5.069297,-0.45548 -4.394527,-3.5901 -0.59882,-2.66877 0.18343,-6.05828 3.542107,-5.92725 37.0723,-5.14986 72.46663,-24.83316 95.35554,-54.54517 -0.48665,-2.12427 -5.2768,-2.59581 -7.15811,-4.14129 -4.43582,-0.81573 -10.21606,-8.08176 -13.38023,-2.73656 -19.86225,22.23156 -47.82857,37.25766 -77.4142,41.08734 -2.020867,-1.90572 -0.28741,-5.92401 -0.24,-8.19816 25.5382,-4.51892 50.04105,-16.05274 68.08297,-34.97086 0.9383,-1.60398 4.20255,-3.16813 3.80528,-5.09137 -3.53518,-3.26888 -7.80231,-5.96205 -11.3844,-9.01913 -6.86479,5.02933 -12.59732,11.76087 -20.02083,16.19577 -12.23517,8.16387 -26.01189,14.62206 -40.76771,16.26913 -1.559657,-4.67367 -0.787747,-10.18069 5.59269,-9.62857 18.67838,-4.37375 35.25041,-15.21362 48.47743,-28.94068 -2.29419,-2.91732 -11.76515,-9.51153 -2.78404,-8.13195 5.25476,-1.26532 9.06212,1.35856 12.32571,5.23175 14.89057,13.30884 32.93795,22.90076 52.38933,27.42679 15.72876,3.55671 32.21052,3.16897 48.1243,1.17025 22.64569,-4.18202 43.37498,-15.72594 60.3615,-31.09111 3.38676,-3.43771 9.48954,-3.32913 13.22001,-2.11036 -1.48587,2.52429 -5.60226,4.75124 -5.7849,7.64532 14.63865,17.04243 35.82028,27.90116 58.03052,30.53678 27.43463,3.8318 55.95566,-6.1812 76.09787,-25.03823 2.01483,-2.54928 8.3127,-5.49939 3.37417,-8.19273 -5.51703,-3.91868 -5.2677,-6.86 1.79828,-5.5719 6.67177,-1.0399 9.70942,6.22869 14.72683,9.0687 34.4265,28.88885 85.75513,34.76594 125.86587,14.59742 12.14152,-5.56709 22.38018,-14.16576 32.5469,-22.61667 3.37179,-1.69928 8.33407,-1.36079 11.27848,-0.41876 -1.61224,2.45016 -5.74127,4.48468 -5.9769,7.51125 12.45474,15.13913 30.70337,24.66442 49.54317,29.50874 1.17737,5.22876 0.75577,11.36049 -5.92762,7.1526 -19.42242,-5.07704 -37.04856,-16.12196 -50.39025,-31.0883 -3.96742,3.31671 -9.56008,6.34545 -12.60097,9.82189 16.75888,19.37277 39.81939,33.00167 64.90415,38.10443 5.28033,-1.41871 5.91534,10.07043 2.26723,9.25614 -26.76704,-4.71834 -51.59198,-18.3408 -70.25179,-38.06128 -2.90657,-4.32172 -6.25213,-5.52882 -10.34153,-1.91383 -4.21404,2.28352 -8.94779,3.52599 -13.0909,5.89248 21.52099,27.49922 52.96909,46.892 87.35104,53.31039 3.80867,1.10432 10.57897,0.0511 8.18276,6.11368 1.53113,5.7427 -4.67437,7.14325 -8.15104,10.00586 -9.90231,7.16531 -21.0906,12.76022 -31.39924,18.95064 10.91682,10.82213 25.3845,17.64764 39.71299,22.13487 -0.54517,2.55781 0.92759,6.46152 -0.78291,8.49113 -17.94922,-4.53783 -34.4273,-14.16567 -47.73569,-26.97299 -5.0668,2.17946 -11.23669,3.8922 -15.70115,6.39565 16.64212,18.77454 39.48471,31.74881 63.93838,37.17228 1.10223,4.91956 0.93234,11.19864 -5.67069,7.28285 -2.68813,-0.55221 -6.06948,-2.17359 -7.38193,1.37641 -2.29428,2.77543 -4.70948,5.45844 -6.85106,8.3561 6.58173,2.23009 13.75749,3.13211 20.16354,5.42738 0.69822,5.32862 0.42677,10.47727 -6.154,7.03786 -6.84212,-1.45426 -13.53307,-3.51642 -20.21651,-5.56144 -4.731,4.65251 -11.13974,8.19538 -14.89671,13.60071 13.14867,5.75278 27.55026,8.71755 41.28873,12.01834 -0.0273,2.52972 1.11865,8.43647 -3.35506,7.51622 -16.24934,-2.50724 -32.09396,-7.472 -47.06702,-14.24292 -5.79458,3.78673 -11.88475,7.08649 -17.97371,10.36812 18.10518,10.65571 38.6645,16.56923 59.09246,20.80325 2.81772,1.46826 9.45052,-0.82722 9.30333,3.34101 0.0627,2.26338 0.728,6.91758 -3.03396,6.08781 -26.24122,-3.19362 -51.35732,-12.76816 -74.57893,-25.18009 -4.0953,-1.07178 -8.41578,2.66481 -12.74889,3.231 -4.10111,1.43487 -9.43218,2.04927 -12.74006,3.89591 30.30212,21.11657 65.95386,35.00396 102.76749,38.7116 1.30331,5.07426 0.89214,11.24439 -5.96778,7.91653 -12.09333,-1.5423 -23.97456,-4.34645 -35.74964,-7.44976 -2.26915,3.01247 -6.97316,5.45106 -7.76947,9.16645 12.4887,15.21672 30.76869,24.62062 49.55641,29.49716 1.17743,5.22851 0.75622,11.35886 -5.9296,7.15975 -19.60198,-4.861 -36.76944,-16.49969 -50.56536,-31.00609 -3.87615,3.24788 -8.60389,6.12403 -12.24677,9.36176 11.23887,14.18926 27.00866,25.12858 43.81125,32.09414 7.93383,3.49026 16.68557,5.02041 24.76994,7.62879 -0.39852,2.46265 1.3615,6.16057 -0.28635,8.19319 -27.29862,-4.30214 -52.54745,-18.30212 -71.55108,-38.24568 -2.90728,-4.32113 -6.2531,-5.52958 -10.34281,-1.91422 -4.22923,2.24857 -8.88388,3.57458 -13.08924,5.84613 22.94846,29.79962 58.10376,49.60659 95.20822,54.82158 0.96767,2.94252 0.0553,6.50817 -0.10428,9.51404 -12.47645,8.92229 -25.83339,16.58071 -39.15684,24.04165 10.91304,10.80352 25.34189,17.82618 39.74775,22.15473 -0.54526,2.56797 0.92811,6.48127 -0.78291,8.52091 -17.94922,-4.53783 -34.4273,-14.16567 -47.73569,-26.97298 -4.99841,2.22462 -11.46188,3.85343 -15.67963,6.46683 16.74906,18.62209 39.38712,31.88301 63.9152,37.09945 1.09964,4.90698 0.94291,11.20407 -5.65745,7.28615 -4.57326,-2.77283 -7.02092,0.43756 -9.44472,3.98851 -4.52338,4.15356 -5.67066,7.20756 1.6703,7.61437 4.22413,1.71109 9.32246,1.44842 13.24814,3.59674 0.82003,2.52827 0.69541,5.87 0.0232,8.16174 -8.88046,-1.27571 -17.36472,-4.23486 -25.94677,-6.72835 -5.23721,4.42917 -10.47476,8.85794 -15.71273,13.28621 13.36467,6.10767 28.05168,8.95786 42.10309,12.33449 -0.0987,2.4946 1.21682,8.46151 -3.26569,7.50463 -16.1255,-2.09114 -31.53486,-7.85231 -46.57707,-13.59077 -4.01245,0.27113 -7.16243,4.2815 -10.99543,5.59951 -1.94865,1.87877 -10.57213,3.61279 -5.25689,5.71207 20.55006,10.45885 42.9022,17.65677 65.76735,20.49292 1.28611,5.09269 0.89088,11.29426 -5.96661,7.84588 -25.52139,-3.81486 -50.00076,-13.04389 -72.49606,-25.55808 -7.91004,3.32355 -16.38291,4.9309 -24.45874,7.66849 27.13651,19.30166 58.85867,32.08974 91.69571,37.47511 3.5441,1.24564 7.90298,0.26333 11.13632,1.87044 0.40389,2.42223 1.40134,6.38594 -0.78125,8.04257 -38.72404,-4.59573 -76.66729,-18.12602 -108.23919,-41.3033 -5.10394,-5.57076 -12.79698,-2.89412 -19.44535,-3.54518 -9.15112,0.26958 -18.68358,-0.73562 -27.59627,0.33105 -31.6898,22.6445 -68.37251,38.93801 -107.21921,43.74446 -11.07327,1.45007 -22.25238,2.07399 -33.41831,1.91505 z m 3.74074,-8.47292 c 39.28207,0.0129 78.39677,-10.85498 112.04087,-31.20343 4.53112,-2.80176 9.69757,-5.25729 13.49376,-8.8555 -8.04867,-2.73239 -16.53382,-4.30673 -24.39088,-7.75291 -30.01179,16.77927 -63.95705,27.92557 -98.61789,27.30509 -19.72612,0.55017 -39.54212,-1.37598 -58.47736,-7.10583 -16.59312,-4.60495 -32.44973,-11.6096 -47.36883,-20.17444 -8.26423,3.01059 -16.70916,5.48382 -25.22676,7.66519 37.37805,26.47062 82.80029,40.44739 128.54709,40.12183 z m -1.3705,-28.66956 c 31.70459,0.11924 63.69331,-7.5818 91.40957,-22.9724 -4.8317,-4.2963 -11.31612,-6.61147 -16.68432,-10.191 -9.04078,2.00127 -17.38712,6.77372 -26.4963,8.86023 -21.57338,6.94242 -44.58552,7.04513 -66.98889,5.85276 -18.92426,-2.33772 -37.59907,-7.29018 -54.91261,-15.34031 -5.69857,3.80188 -12.41166,6.90585 -17.90751,10.51046 27.87095,15.31765 59.77942,23.57344 91.58006,23.28026 z M 246.61952,626.9228 c 44.16145,0.21863 88.14508,-21.13035 114.96626,-56.16724 -6.0681,-2.96933 -12.64007,-5.19113 -18.54808,-8.63348 -13.19653,13.42613 -27.5883,26.22931 -45.24763,33.42837 -17.57272,8.06969 -36.95824,11.75751 -56.26815,10.71267 -34.38634,-0.0817 -67.0798,-17.3565 -90.19008,-42.20446 -1.31841,-2.53499 -3.01892,-2.37907 -4.76529,-0.57436 -4.77491,3.12539 -10.99618,4.44733 -15.42142,7.65692 27.2163,35.06518 71.2101,56.09716 115.47439,55.78158 z m 317.53513,-0.25656 c 38.61204,1.10895 76.76098,-15.78961 104.06717,-42.79154 3.77511,-4.21336 8.56315,-8.24491 11.16722,-13.13901 -6.07811,-2.99398 -12.47595,-5.66686 -18.50835,-8.87016 -16.92267,19.88978 -40.16071,34.6214 -65.51907,41.0239 -23.90774,5.23513 -49.51762,4.86492 -72.79364,-3.09666 -21.39738,-7.46323 -40.47428,-21.06145 -55.46875,-37.91732 -5.65147,3.78195 -12.68051,5.65004 -18.174,9.2608 24.0095,31.07594 61.45995,51.26996 100.47505,55.12282 4.91909,0.30438 9.82858,0.39655 14.75437,0.40717 z m -160.03213,-8.83706 c 22.76096,-0.0108 45.71831,-3.87337 66.58833,-13.19353 -5.17149,-4.37352 -10.34345,-8.74649 -15.51576,-13.11903 -31.62853,10.54236 -66.60475,11.32237 -98.26205,0.51807 -4.29486,-1.72226 -6.43002,4.33469 -9.68371,6.10283 -1.92667,2.2053 -6.18881,4.09391 -6.79703,6.7249 20.06538,8.52972 41.8372,13.07248 63.67022,12.96676 z m 160.03213,-19.86559 c 30.95988,0.5583 61.64493,-12.5205 83.58747,-34.22355 1.72162,-1.99037 4.59361,-3.84606 5.21683,-6.38656 -3.71276,-3.25448 -7.6669,-6.44357 -11.83793,-8.991 -12.62591,11.7742 -26.60252,22.68736 -43.21695,28.16307 -17.37799,6.39894 -36.49657,6.33009 -54.59324,3.62653 -20.7885,-4.09674 -39.30358,-15.64052 -54.3515,-30.26186 -2.60492,-3.64924 -5.54916,1.75218 -8.05747,2.77079 -1.37458,1.81545 -5.37085,3.01053 -5.45551,5.3413 9.17013,10.94333 20.88223,19.82972 33.46122,26.49779 17.06201,8.72454 36.01027,13.97799 55.24708,13.46349 z m -317.1594,-0.0149 c 24.50865,0.55204 48.73138,-8.29467 68.6325,-22.31693 6.91338,-5.63542 13.90747,-11.4515 19.64545,-18.25179 -3.95623,-3.52631 -8.39916,-6.45459 -12.6109,-9.65969 -16.40463,18.00096 -38.88657,30.55048 -63.18856,33.47789 -30.98125,4.35451 -63.40126,-6.77531 -85.39613,-28.98649 -3.37855,-6.07597 -7.29883,-2.90465 -11.22431,0.72968 -1.40303,1.61947 -5.00646,2.97044 -5.24001,5.00799 22.06036,25.34598 55.67658,40.8194 89.38196,39.99934 z m 159.98744,-6.56283 c 14.16873,-0.0939 28.27388,-2.98662 41.8664,-6.826 -2.96548,-3.49739 -5.80081,-8.1087 -9.26411,-10.63791 -11.53043,2.67185 -23.3106,4.13238 -35.17776,3.57189 -11.42401,0.41022 -22.85245,-0.76577 -33.86024,-3.74238 -3.00282,3.36151 -6.87928,7.30347 -8.64838,10.91267 14.55836,4.59595 29.8339,6.88047 45.08409,6.72173 z M 245.52875,573.72164 c 26.16367,0.0628 52.71704,-11.23243 69.92189,-31.14076 1.17797,-2.54714 -3.09567,-4.51182 -4.32337,-6.44367 -1.91455,-1.96532 -4.15171,-4.15965 -7.00144,-2.17822 -21.28179,6.44017 -43.58526,8.43792 -65.74916,7.86381 -18.71227,0.54896 -37.20928,-2.65264 -55.2933,-7.18684 -2.15611,3.45293 -10.86076,6.86044 -4.38613,10.37628 17.57298,17.66663 41.82354,28.64956 66.83151,28.7094 z m 317.75527,-0.0927 c 25.61896,0.3293 50.86284,-10.35829 68.65471,-28.75566 5.53968,-2.66847 -0.66953,-6.0154 -2.86253,-8.93965 -1.85689,-2.98642 -4.91645,-3.07191 -7.84634,-1.76075 -39.10047,10.77954 -81.0748,10.68183 -120.26377,0.377 -2.13363,3.49912 -11.05902,7.11463 -4.37992,10.45923 17.47633,17.77895 41.65968,28.68141 66.69785,28.61983 z M 405.28281,569.246 c 20.68098,0.87382 41.05817,-5.37598 58.97627,-15.41236 9.78093,-6.21817 19.42279,-13.3632 27.04401,-22.03137 -5.35268,-2.07702 -10.83552,-3.80097 -16.2573,-5.68723 -18.78892,16.81993 -43.38684,27.65075 -68.84931,27.22457 -26.47209,0.99252 -52.55024,-10.22856 -71.71115,-28.077 -3.96867,-2.08765 -8.26188,2.15664 -12.16399,2.84858 -1.47902,1.08968 -7.01976,1.19931 -3.39645,3.75894 18.19312,20.00564 43.85822,33.31574 70.63361,36.75021 5.23364,0.46759 10.47629,0.62471 15.72431,0.62566 z m 4.29688,-24.72359 c 18.97401,0.72229 36.92153,-8.10925 52.22624,-18.57455 1.07564,-1.12433 5.57422,-3.17747 2.09711,-4.33659 -14.36845,-7.76186 -28.48424,-16.07017 -41.92929,-25.39063 -13.58525,-0.0229 -27.1705,-0.0466 -40.75576,-0.0712 -12.42671,8.94873 -25.86084,16.55952 -39.08236,24.06318 12.5757,12.56991 29.58816,20.3147 46.94617,23.69405 6.79995,0.77263 13.66153,0.54065 20.49789,0.61573 z m -164.57397,-11.0037 c 39.63683,0.44971 79.0862,-11.50525 112.8543,-32.06529 4.11203,-2.55247 8.11347,-5.27705 12.16557,-7.92247 -8.51787,-2.24627 -16.88745,-5.01189 -25.3178,-7.55926 -30.69673,18.1337 -66.23096,27.84705 -101.90841,27.45499 -35.42691,0.78307 -70.23101,-9.85462 -101.1302,-26.71247 -4.40622,-0.81249 -9.07749,2.78974 -13.72352,3.46167 -3.79108,1.30585 -8.96859,1.8448 -11.82303,3.70597 31.71488,21.84183 69.1494,36.11238 107.66188,39.06912 7.07289,0.41643 14.14013,0.56911 21.22121,0.56774 z m 315.3751,-0.0199 c 39.29735,0.90859 78.44903,-10.51193 112.29076,-30.21305 5.19184,-3.04016 10.16389,-6.43177 15.15231,-9.7896 -8.76549,-1.92434 -17.30434,-5.87825 -26.09905,-7.02297 -24.72334,13.86973 -52.16983,23.50367 -80.4969,26.10898 -24.7815,1.41299 -50.07751,1.17705 -74.02843,-6.13261 -6.11113,-1.59314 -14.32567,-4.35655 -18.72846,-6.08601 -10.42481,-4.13614 -20.42948,-9.22812 -30.33965,-14.45644 -7.67592,3.52553 -16.90024,4.93687 -24.28496,7.88202 31.76236,22.31586 69.59773,36.38972 108.3521,39.2214 6.06352,0.34224 12.10954,0.4675 18.18228,0.48828 z m -317.53513,-28.3617 c 31.80753,2.8e-4 63.73524,-7.91408 91.58337,-23.36963 -5.42727,-3.93633 -12.28201,-6.60577 -17.96545,-10.52701 -24.96116,11.55963 -52.73933,17.48276 -80.27449,15.7914 -23.35524,0.0201 -46.12407,-6.43926 -67.42646,-15.6143 -2.25926,0.72559 -4.48439,3.23432 -6.95843,4.14461 -3.00742,2.22721 -9.75963,4.2856 -10.24971,6.53829 21.4966,12.14414 45.83165,19.07091 70.28183,21.88298 6.96446,0.76069 14.00064,1.15326 21.00934,1.15366 z m 317.80327,-0.0629 c 31.81294,-0.01 63.79879,-7.87896 91.63633,-23.36302 -5.75388,-3.88992 -12.27719,-6.58732 -18.05648,-10.49224 -25.85665,12.10505 -54.67558,17.65617 -83.18191,15.6996 -22.35055,-0.44067 -44.12788,-6.55894 -64.48759,-15.50099 -2.25433,0.72056 -4.47064,3.22787 -6.93857,4.13467 -3.18466,2.28203 -8.23018,3.57322 -10.27377,6.72173 27.89861,15.14839 59.56487,23.00355 91.30199,22.80025 z M 401.06373,488.00257 c 44.27857,0.29877 88.62963,-20.69814 115.60349,-55.93221 -1.90632,-2.22559 -6.26626,-2.54881 -8.79511,-4.42002 -3.5698,-0.90015 -7.943,-5.95935 -10.80996,-3.48418 -24.26084,27.80887 -61.14663,44.99878 -98.27762,43.16308 -33.47872,0.0888 -66.007,-15.23841 -88.96408,-39.30781 -2.98614,-4.26382 -6.35269,-5.79603 -10.52447,-2.08355 -3.98882,2.4571 -9.78581,3.34748 -12.97505,6.28476 14.46984,16.36323 30.81918,31.60621 50.8973,40.80311 19.81664,9.73585 41.77764,14.95601 63.8455,14.97682 z m 158.72453,-9.0903 c 22.46162,0.16245 45.19666,-4.20252 65.70445,-13.30773 -4.26987,-4.82517 -10.00464,-8.45973 -14.41671,-13.27794 -26.96019,9.25661 -56.35261,11.17493 -84.1648,4.70073 -5.54587,-0.85477 -10.80272,-3.44892 -16.22583,-4.3399 -5.62125,3.86857 -10.56207,8.61385 -15.80211,12.96511 20.50619,8.61643 42.6591,13.36402 64.905,13.25973 z m -318.39417,-0.0365 c 22.88813,0.0938 46.01089,-3.87323 66.89123,-13.44512 -5.28609,-4.0077 -10.15249,-8.52505 -14.97286,-13.07104 -16.24242,5.33511 -33.16693,8.87115 -50.34594,8.15181 -16.08461,0.52206 -32.04082,-2.18775 -47.29987,-7.17193 -5.36667,-1.84366 -8.27937,4.86091 -12.30891,7.15342 -1.31014,1.9833 -8.47827,4.70241 -4.51662,5.81169 19.87947,8.04688 41.08167,12.76637 62.55297,12.57117 z m 160.02054,-19.9401 c 30.69105,0.59721 61.12416,-12.21345 83.00137,-33.59498 1.92329,-2.18203 5.05367,-4.18793 5.83106,-6.97043 -3.71275,-3.25448 -7.66689,-6.44356 -11.83792,-8.991 -12.93001,12.01851 -27.26102,23.23708 -44.37402,28.52391 -33.94959,11.3136 -73.83554,3.79329 -100.16471,-20.81588 -2.97689,-2.68422 -5.80928,-5.52429 -8.72697,-8.27244 -3.77061,3.32546 -8.66645,6.09583 -12.15242,9.43127 18.20634,22.00732 45.39676,36.46475 73.67437,40.0183 4.88539,0.50162 9.83046,0.67731 14.74924,0.67125 z m -158.72121,-6.80609 c 14.72529,0.28844 29.51121,-1.90952 43.46696,-6.61745 -2.75518,-3.72994 -5.64519,-7.70726 -9.06217,-10.73557 -18.28982,4.64764 -37.57405,4.69726 -56.25663,2.64997 -4.26516,-0.12889 -8.75277,-3.43019 -12.86083,-1.88031 -3.06438,2.79395 -6.2348,6.19276 -8.16837,9.69611 13.59143,5.29744 28.36285,7.12021 42.88104,6.88725 z m 317.64767,-0.0298 c 14.80825,0.44028 29.54348,-1.95518 43.60434,-6.52642 -2.77589,-3.74997 -5.67378,-7.70282 -9.05389,-10.79681 -18.2895,4.65296 -37.57692,4.69928 -56.25828,2.64003 -4.70551,-0.13313 -10.58224,-4.45694 -14.7312,-0.72332 -2.49559,2.85081 -4.71195,5.93575 -7.11235,8.86686 14.1447,4.39568 28.68723,7.01096 43.55138,6.53966 z m -158.81722,-17.4093 c 26.5236,0.28082 52.13252,-12.04012 70.17654,-31.20223 -1.94895,-2.29157 -5.66874,-9.56749 -10.29235,-7.09371 -18.59603,4.88985 -37.78372,7.03512 -57.00084,6.45381 -21.17486,0.52312 -42.28131,-2.4002 -62.62302,-8.24783 -4.15216,-1.45808 -5.96767,4.69755 -8.78357,6.90008 -2.79597,2.41332 2.4474,4.49046 3.58452,6.44232 16.9397,17.21319 40.90821,26.76777 64.93872,26.74756 z m 157.92838,-4.22735 c 32.52029,0.9351 64.95479,-13.39473 86.95545,-37.21201 2.44769,-1.63749 1.44281,-3.03864 -0.94346,-3.43451 -4.32221,-1.51753 -8.58343,-3.19973 -12.82938,-4.91758 -20.09783,19.39186 -47.92706,31.19852 -76.05602,29.37798 -24.06587,-0.15673 -47.11,-10.56882 -64.99603,-26.32583 -3.90885,-1.31612 -8.72168,2.47039 -12.97915,3.27454 -0.93752,0.88499 -5.87894,0.75717 -3.43538,2.67755 21.5707,22.72035 52.76891,37.04943 84.28397,36.55986 z m -316.95911,-0.007 c 33.06436,0.6309 65.91766,-14.10573 87.7698,-38.92016 -4.81449,-2.80389 -10.25674,-4.31814 -15.38334,-6.44034 -20.05115,19.07199 -47.5895,30.92697 -75.50319,29.13135 -24.75486,0.25141 -48.23892,-11.0228 -66.59163,-27.0723 -5.33242,1.99852 -11.24826,3.39637 -16.20763,5.9802 21.39806,22.67648 51.84681,37.24203 83.24782,37.28317 0.88931,0.0201 1.77867,0.0317 2.66817,0.0381 z m 0.0529,-24.91063 c 13.19376,0.8911 26.28771,-1.94144 38.18029,-7.64367 9.32516,-4.24263 18.10819,-9.7074 25.67697,-16.64129 -13.91136,-6.9015 -26.99298,-15.30063 -39.79244,-24.05985 -13.69119,-0.0169 -27.38237,-0.0328 -41.07356,-0.048 -13.30797,10.34975 -28.38216,17.95753 -42.91745,26.33077 0.83943,2.60064 5.07917,4.36781 7.4285,6.26325 15.24707,9.73443 32.97051,17.0116 51.36216,15.79215 l 0.84745,0.005 0.28642,0.002 z m 313.47328,-0.007 c 12.11474,0.25832 24.53233,0.11936 35.8233,-4.87122 11.90671,-4.29277 22.98277,-10.85899 32.26298,-19.5147 -13.57706,-6.87369 -26.38364,-15.12047 -38.88044,-23.77516 -13.89698,-0.0684 -27.79395,-0.13683 -41.69094,-0.20524 -13.76992,9.82761 -28.41124,18.41904 -43.43718,26.09739 1.14528,2.39708 4.85267,4.3192 7.19015,6.21524 14.53041,8.89346 31.26713,16.92593 48.73213,16.05369 z M 405.19011,394.59159 c 44.9978,0.67882 90.00066,-13.94106 126.6254,-39.87189 -8.01106,-2.86434 -16.47339,-4.38751 -24.29323,-7.8274 -27.75732,15.66872 -58.78862,26.10208 -90.80493,27.27363 -37.73792,2.19532 -76.04077,-6.11719 -109.05302,-24.66772 -4.5785,-4.30004 -10.44254,-0.33134 -15.39503,0.77897 -4.8181,1.46294 -9.61077,3.0269 -14.50241,4.23231 36.94444,26.00583 82.191,40.65488 127.42322,40.0821 z m -0.21518,-28.52225 c 31.6982,-0.002 63.67983,-7.5147 91.41289,-23.06177 1.19011,-1.53582 -3.25905,-1.58375 -3.84501,-2.75093 -4.86462,-2.18701 -9.45503,-6.52702 -14.3372,-7.56476 -21.86013,9.66992 -45.48275,15.66917 -69.49072,15.44255 -26.69724,1.41739 -53.3934,-5.22697 -77.62436,-15.77967 -5.5821,3.9598 -12.37821,6.46113 -17.71718,10.43101 27.87425,15.32048 59.79627,23.57808 91.60158,23.28357 z M 245.08019,348.97619 c 44.69329,0.61227 89.15694,-20.78916 116.50889,-56.17387 -6.10283,-3.00752 -12.62047,-5.18822 -18.52987,-8.63513 -15.87381,16.4956 -34.53433,31.03575 -56.66381,37.92538 -22.51496,7.68715 -47.29271,8.26724 -70.38074,2.89798 -25.2524,-5.98146 -47.72142,-20.62401 -65.29663,-39.4827 -1.83902,-3.61154 -4.37498,1.0635 -6.73194,1.43013 -4.06242,2.33116 -9.32935,3.49881 -12.81945,6.21193 26.97145,34.60953 70.08435,55.71045 113.91355,55.82628 z m 319.74977,-0.0149 c 43.91926,0.10556 87.79977,-20.94576 114.56238,-55.85276 -5.8992,-3.58057 -12.34574,-6.15133 -18.52656,-9.19459 -21.0439,24.6841 -51.87184,41.50064 -84.36176,44.06119 -20.56963,1.46844 -41.69048,-0.3713 -60.69881,-8.89153 -18.90398,-7.57719 -34.97811,-20.56043 -48.9427,-35.13324 -5.63955,3.63588 -12.54605,5.62077 -17.92406,9.27569 27.19989,35.15963 71.5535,56.16276 115.89151,55.73524 z m -158.51764,-9.01585 c 22.02937,-0.008 44.06218,-4.62867 64.29755,-13.36236 -5.20287,-4.39944 -10.40568,-8.79894 -15.60845,-13.1985 -29.75072,10.43246 -62.64711,11.34135 -92.83469,2.15507 -3.31233,-0.65568 -7.56787,-3.33788 -10.16452,0.15889 -3.40421,4.14429 -8.86656,6.71837 -11.80483,11.02192 20.75377,9.03438 43.50626,13.37978 66.11494,13.22498 z M 246.46724,319.9408 c 33.36104,0.73659 66.62698,-14.8221 88.14222,-40.19135 0.9115,-2.16301 -3.75213,-2.5944 -4.5104,-4.29025 -3.80332,-2.55001 -7.74016,-8.49187 -11.06352,-2.204 -25.49748,26.8644 -66.22003,37.45642 -101.63677,26.80179 -18.25812,-5.54508 -34.74209,-16.22181 -47.70425,-30.18737 -3.87484,3.2517 -8.99997,6.09962 -12.23352,9.58025 10.13371,12.9747 24.34834,22.47864 39.05267,29.65989 15.60804,7.354 32.68196,11.20022 49.95357,10.83104 z m 317.6874,-0.0927 c 33.53861,1.06671 66.53231,-14.84731 88.74636,-39.66334 8e-5,-2.45268 -4.06513,-3.75029 -5.75196,-5.46892 -2.27959,-0.79365 -3.67571,-4.35783 -6.04293,-4.23215 -9.92387,8.55987 -19.73528,17.63888 -31.82104,23.16771 -14.36194,7.07398 -30.33148,11.08183 -46.40162,10.03183 -27.72639,1.10781 -54.50159,-12.24901 -73.5515,-31.83432 -3.06634,-4.19824 -6.85975,2.91528 -10.2144,4.35015 -1.58025,1.50881 -5.7287,3.29886 -2.4563,5.44062 22.25434,23.88353 54.57672,39.30183 87.49339,38.20842 z m -158.89998,-6.73662 c 14.70098,0.64057 29.71391,-2.25267 43.37593,-6.6605 -3.10001,-3.44299 -5.14937,-8.96818 -9.91128,-10.24728 -8.31226,1.13417 -16.52236,3.43874 -25.02248,3.32186 -14.09166,1.30636 -28.16108,-0.35025 -41.90682,-3.48242 -4.51884,1.12245 -6.57399,6.65294 -9.52728,9.85998 -0.39592,2.05484 4.92768,1.76781 6.74335,2.76549 11.8309,3.37975 23.95856,4.74734 36.24858,4.44287 z m 158.61363,-17.4871 c 26.76035,0.43168 52.80987,-11.92604 70.7892,-31.5049 -3.13868,-2.73697 -5.37413,-7.58269 -9.45445,-8.83872 -17.92862,4.84267 -36.26551,8.59772 -54.9268,8.48475 -21.16074,0.61147 -42.52745,-0.10858 -63.07737,-5.67929 -5.50311,-3.11192 -9.0109,0.65968 -12.43782,4.70164 -2.51782,2.7067 4.07854,5.60562 5.7515,8.06163 17.26616,15.75785 39.92942,24.94023 63.35574,24.77489 z M 248.27305,295.3579 c 22.92761,0.43741 45.44819,-9.85648 62.1458,-25.3658 3.85462,-3.44695 8.76804,-6.93844 2.1114,-10.44935 -2.35803,-2.08017 -4.77977,-5.95375 -8.38458,-3.55192 -39.30447,11.18105 -81.52401,10.69818 -121.01597,0.63229 -1.93977,3.38542 -10.76509,6.70006 -4.69577,10.16784 17.77891,17.83993 42.64935,29.5006 68.09619,28.55914 0.58098,0.002 1.16196,0.005 1.74293,0.008 z m 158.04424,-4.03205 c 21.51106,0.69998 42.7535,-6.35105 61.05171,-17.36791 8.3902,-6.00548 17.42718,-12.28329 23.87779,-20.1503 -5.52573,-1.68643 -11.50642,-4.96886 -16.86454,-5.13192 -17.97662,15.88558 -41.1297,26.47511 -65.367,26.61795 -27.74866,1.73957 -55.38336,-9.60826 -75.26578,-28.76272 -3.49032,-0.91147 -7.67275,2.719 -11.42485,3.57569 -1.44687,1.09489 -7.027,1.2489 -3.40638,3.78873 21.91767,24.17227 54.7195,38.52966 87.39905,37.43048 z m -1.48306,-24.81296 c 12.73022,0.83473 25.47644,-1.61738 36.97319,-7.17244 8.3875,-3.94949 17.67584,-8.22707 23.79219,-15.01043 -14.49034,-7.56971 -28.86056,-15.64505 -42.09711,-25.35684 -7.34807,-1.61497 -15.62547,-0.2726 -23.33258,-0.74504 -6.49791,0.31781 -13.39998,-0.69431 -19.65486,0.42325 -12.19268,8.79366 -25.41451,16.21024 -38.37945,23.59474 12.5726,12.57263 29.58645,20.30635 46.93956,23.69406 5.23062,0.62566 10.50084,0.51675 15.75906,0.5727 z M 241.72679,255.82901 c 45.59787,0.42311 90.98356,-14.0407 128.30046,-40.25258 -8.51529,-2.26379 -16.88921,-5.02092 -25.32112,-7.57085 -30.22488,17.7907 -65.07846,27.59461 -100.19532,27.44307 -35.95313,1.06361 -71.39471,-9.52194 -102.7556,-26.65743 -4.39868,-0.95455 -9.0707,2.74219 -13.71517,3.3903 -3.84231,1.31151 -8.94384,1.8717 -11.93727,3.71105 36.68985,25.48152 80.92254,39.93037 125.62402,39.93644 z m 317.63111,-0.23669 c 45.63753,0.75593 91.19491,-13.81025 128.47096,-40.06555 -8.94325,-1.77721 -17.40902,-6.28917 -26.45824,-6.94518 -31.11517,18.11197 -67.11469,27.57025 -103.13658,26.88662 -34.96688,0.37473 -69.13798,-10.51035 -99.61674,-27.13322 -6.92859,1.61481 -14.29003,4.67417 -21.57255,6.23626 -1.35908,0.47412 -5.11972,0.96505 -1.86754,2.36409 36.47688,24.41236 80.06377,39.35062 124.18069,38.65698 z M 243.42004,227.17104 c 31.66837,-0.0864 63.3754,-8.03265 91.07026,-23.42592 -5.75594,-3.88878 -12.27797,-6.58756 -18.05813,-10.49225 -35.69757,17.01689 -77.36268,20.16378 -115.69453,11.29502 -11.22472,-2.48771 -21.95461,-7.42088 -32.59402,-11.08978 -5.21514,4.18919 -11.64823,6.76447 -17.35468,10.25391 28.09751,15.65108 60.5244,23.50562 92.6311,23.45902 z m 316.63305,-0.001 c 32.0381,0.15904 64.19293,-7.90196 92.2322,-23.42426 -5.74646,-3.88686 -12.26333,-6.5797 -18.03662,-10.47901 -25.98653,11.97787 -54.88598,17.78835 -83.49113,15.68128 -22.35666,-0.30352 -44.09547,-6.90868 -64.46142,-15.61508 -5.69826,3.84518 -11.7614,7.11704 -17.80323,10.38467 27.78182,15.51063 59.82378,23.25684 91.5602,23.4524 z M 400.54731,210.02673 c 44.42921,0.23917 89.08181,-20.45435 116.1315,-55.90077 -5.87955,-3.57596 -12.31273,-6.13273 -18.47524,-9.16975 -24.24384,28.26125 -61.15594,46.10259 -98.66749,44.40823 -34.02694,0.34387 -67.0258,-15.40652 -90.29497,-39.85851 -2.88528,-5.0767 -6.61723,-4.03033 -10.70871,-1.16635 -3.87885,2.2081 -8.92143,3.19603 -12.26443,5.75163 14.4592,17.10571 31.71569,32.27014 52.28416,41.59826 19.30265,9.12538 40.6268,14.20212 61.99518,14.33726 z m -157.34244,-9.07706 c 22.05696,-0.0452 44.32484,-4.38221 64.49121,-13.31105 -4.26988,-4.82516 -10.00465,-8.45973 -14.41672,-13.27794 -31.18781,10.56668 -65.70657,11.61527 -97.07068,1.15694 -5.0666,-2.06752 -8.52809,4.02599 -12.32279,6.32268 -2.73011,2.75718 -9.94566,6.24982 -2.79537,7.45516 19.78873,7.67724 40.8595,11.82649 62.11435,11.65421 z m 316.26063,-0.0133 c 22.58451,0.13265 45.37484,-4.14458 66.02721,-13.2978 -4.24759,-4.80869 -9.96604,-8.4214 -14.35713,-13.22167 -30.39759,9.8239 -63.85428,11.92855 -94.47675,1.82415 -3.19343,-1.37851 -6.77037,-1.96836 -9.31695,0.94499 -4.30897,3.28855 -8.29018,6.9787 -12.42883,10.47405 20.41765,8.60485 42.41169,13.26301 64.55245,13.27628 z M 401.02069,180.89368 c 31.11108,0.76689 61.78716,-12.20337 83.8264,-34.06096 1.58074,-2.06438 5.24219,-3.98145 5.37184,-6.52597 -3.55663,-3.21301 -7.76074,-6.03592 -11.39433,-8.9612 -7.40108,5.30989 -13.52087,12.51021 -21.49839,17.18301 -32.96159,22.12333 -78.98393,22.06921 -111.84876,-0.2289 -7.4426,-4.99455 -13.93083,-11.2295 -20.33401,-17.45894 -3.6686,3.25638 -8.85863,6.03847 -11.95544,9.37664 7.64819,10.20417 18.23556,18.07515 28.989,24.79146 17.65855,10.76444 38.24002,16.03941 58.84369,15.88486 z m -158.32727,-6.73 c 14.72061,0.29067 29.49814,-1.91208 43.45207,-6.60917 -3.10716,-3.5189 -5.37904,-8.79067 -9.8848,-10.52041 -21.92575,5.25895 -45.10339,5.07737 -67.03358,-0.0215 -3.10696,-0.9792 -3.3301,3.74425 -5.59179,5.04465 -0.96686,1.62314 -3.86945,3.61183 -3.63755,5.33174 13.54717,5.15505 28.23256,7.02883 42.69565,6.7747 z m 315.53399,-0.002 c 15.48524,0.3796 30.97619,-1.65427 45.6965,-6.54461 -3.19709,-3.45259 -5.29939,-8.92063 -9.86989,-10.58164 -21.3626,5.08641 -44.05103,5.16904 -65.48101,0.26316 -5.43962,-0.82916 -7.55451,5.77416 -10.73722,8.91321 -2.62868,2.54907 3.59263,1.97431 4.86295,2.99258 11.65786,3.16307 23.41172,5.40811 35.52867,4.9573 z"
       id="path5395"
       inkscape:connector-curvature="0" /><path
       style="fill:#999999;fill-opacity:1;fill-rule:evenodd;stroke:#a4a4a4;stroke-width:1;stroke-linejoin:round;stroke-miterlimit:4;stroke-dasharray:none;stroke-opacity:1"
       d="m 745.74434,883.71095 c -27.72604,-0.68431 -54.90458,8.99254 -77.53134,24.67779 4.60715,1.90714 11.93449,0.79799 17.70392,0.65325 11.98256,-3.03091 22.79702,-9.67543 35.0706,-11.87567 15.77755,-2.88933 32.27576,-1.98842 48.24729,-0.78323 16.90517,1.48481 31.05214,13.80105 48.37832,12.727 6.97482,1.61866 10.11916,-0.70035 3.38181,-4.23552 -22.53177,-13.84426 -48.57286,-22.55182 -75.2506,-21.16362 z"
       id="path5397"
       inkscape:connector-curvature="0"
       transform="matrix(0.75000002,0,0,-0.75000002,0,800.00005)" /><path
       style="fill:#999999;fill-opacity:1;fill-rule:evenodd;stroke:#a4a4a4;stroke-width:2;stroke-linejoin:round;stroke-miterlimit:4;stroke-dasharray:none;stroke-opacity:1"
       d="m 321.28942,883.4064 c -27.36589,0.35927 -54.42525,9.25249 -76.80527,24.98455 4.60716,1.90483 11.93464,0.79686 17.70392,0.65104 11.98257,-3.03091 22.79702,-9.67543 35.07061,-11.87567 15.77755,-2.88933 32.27575,-1.98842 48.24728,-0.78323 16.90517,1.48481 31.05214,13.80105 48.37833,12.727 6.52462,1.48354 10.43177,-0.44806 3.67191,-4.10897 -22.88721,-14.20064 -49.19666,-22.37293 -76.26678,-21.59472 z"
       id="path5399"
       inkscape:connector-curvature="0"
       transform="matrix(0.75000002,0,0,-0.75000002,0,800.00005)" /></g></svg>