<?xml version="1.0" encoding="UTF-8" standalone="no"?>
<!-- Created with Inkscape (http://www.inkscape.org/) -->

<svg
   xmlns:dc="http://purl.org/dc/elements/1.1/"
   xmlns:cc="http://creativecommons.org/ns#"
   xmlns:rdf="http://www.w3.org/1999/02/22-rdf-syntax-ns#"
   xmlns:svg="http://www.w3.org/2000/svg"
   xmlns="http://www.w3.org/2000/svg"
   xmlns:sodipodi="http://sodipodi.sourceforge.net/DTD/sodipodi-0.dtd"
   xmlns:inkscape="http://www.inkscape.org/namespaces/inkscape"
   version="1.1"
   id="svg815"
   xml:space="preserve"
   width="819.17029"
   height="258.82471"
   viewBox="0 0 819.17025 258.82469"
   sodipodi:docname="7720-1.svg"
   inkscape:version="0.92.4 (5da689c313, 2019-01-14)"><metadata
     id="metadata821"><rdf:RDF><cc:Work
         rdf:about=""><dc:format>image/svg+xml</dc:format><dc:type
           rdf:resource="http://purl.org/dc/dcmitype/StillImage" /><dc:title></dc:title></cc:Work></rdf:RDF></metadata><defs
     id="defs819"><clipPath
       clipPathUnits="userSpaceOnUse"
       id="clipPath831"><path
         d="M 0,800 H 800 V 0 H 0 Z"
         id="path829"
         inkscape:connector-curvature="0" /></clipPath></defs><sodipodi:namedview
     pagecolor="#ffffff"
     bordercolor="#666666"
     borderopacity="1"
     objecttolerance="10"
     gridtolerance="10"
     guidetolerance="10"
     inkscape:pageopacity="0"
     inkscape:pageshadow="2"
     inkscape:window-width="1920"
     inkscape:window-height="1017"
     id="namedview817"
     showgrid="false"
     inkscape:zoom="0.79593744"
     inkscape:cx="407.58203"
     inkscape:cy="130.24164"
     inkscape:window-x="1272"
     inkscape:window-y="-8"
     inkscape:window-maximized="1"
     inkscape:current-layer="g823" /><g
     id="g823"
     inkscape:groupmode="layer"
     inkscape:label="MTT049741-511-CDD51-PT01"
     transform="matrix(1.3333333,0,0,-1.3333333,-125.75135,661.91638)"
     style="display:inline"><g
       id="g825"
       style="fill:none;fill-opacity:1;stroke:#5f5f5f;stroke-width:2.83464575;stroke-miterlimit:4;stroke-dasharray:none;stroke-opacity:1"><g
         id="g827"
         clip-path="url(#clipPath831)"
         style="fill:none;fill-opacity:1;stroke:#5f5f5f;stroke-width:2.83464575;stroke-miterlimit:4;stroke-dasharray:none;stroke-opacity:1"><g
           id="g833"
           transform="translate(551.6855,446.4482)"
           style="fill:none;fill-opacity:1;stroke:#5f5f5f;stroke-width:2.83464575;stroke-miterlimit:4;stroke-dasharray:none;stroke-opacity:1"><path
             d="m 0,0 c 0.033,0 0.063,-0.002 0.094,-0.002 5.855,6.868 14.17,11.164 23.404,11.164 9.234,0 17.551,-4.296 23.404,-11.164 0.032,0 0.061,0.002 0.094,0.002 9.504,0 18.031,-4.559 23.904,-11.781 1.704,0.653 3.381,1.284 5.03,1.887 C 69.531,-1.382 59.873,4.059 49.049,4.059 49.014,4.059 48.98,4.056 48.945,4.056 42.58,11.521 33.539,16.193 23.498,16.193 13.459,16.193 4.414,11.521 -1.949,4.056 c -0.035,0 -0.069,0.003 -0.102,0.003 -10.662,0 -20.193,-5.272 -26.592,-13.562 l 4.811,-2.192 C -17.961,-4.522 -9.465,0 0,0 Z"
             style="fill:none;fill-opacity:1;stroke:#5f5f5f;stroke-width:2.83464575;stroke-linecap:butt;stroke-linejoin:round;stroke-miterlimit:4;stroke-dasharray:none;stroke-opacity:1"
             id="path835"
             inkscape:connector-curvature="0" /></g><g
           id="g837"
           transform="translate(598.6816,353.5498)"
           style="fill:none;fill-opacity:1;stroke:#5f5f5f;stroke-width:2.83464575;stroke-miterlimit:4;stroke-dasharray:none;stroke-opacity:1"><path
             d="m 0,0 c -0.033,0 -0.063,0.004 -0.094,0.004 -5.853,-6.868 -14.17,-11.164 -23.404,-11.164 -9.234,0 -17.549,4.296 -23.404,11.164 -0.03,0 -0.061,-0.004 -0.092,-0.004 -9.467,0 -17.963,4.523 -23.834,11.697 l -4.809,-2.193 c 6.397,-8.289 15.93,-13.561 26.59,-13.561 0.033,0 0.068,0.003 0.102,0.003 6.365,-7.467 15.408,-12.139 25.447,-12.139 10.041,0 19.082,4.672 25.447,12.139 0.035,0 0.069,-0.003 0.104,-0.003 10.826,0 20.484,5.442 26.883,13.955 C 27.283,10.5 25.605,11.126 23.9,11.778 18.025,4.558 9.502,0 0,0 Z"
             style="fill:none;fill-opacity:1;stroke:#5f5f5f;stroke-width:2.83464575;stroke-linecap:butt;stroke-linejoin:round;stroke-miterlimit:4;stroke-dasharray:none;stroke-opacity:1"
             id="path839"
             inkscape:connector-curvature="0" /></g><g
           id="g841"
           transform="translate(551.6875,353.5498)"
           style="fill:none;fill-opacity:1;stroke:#5f5f5f;stroke-width:2.83464575;stroke-miterlimit:4;stroke-dasharray:none;stroke-opacity:1"><path
             d="m 0,0 c 0.031,0 0.063,0.004 0.092,0.004 5.855,-6.868 14.17,-11.164 23.404,-11.164 9.234,0 17.551,4.296 23.404,11.164 0.032,0 0.061,-0.004 0.094,-0.004 9.502,0 18.026,4.558 23.901,11.778 -5.077,1.942 -10.356,4.089 -15.663,6.333 -4,-3.5 -9.058,-5.599 -14.568,-5.599 -0.021,0 -0.045,10e-4 -0.066,10e-4 C 36.32,7.494 30.242,4.355 23.496,4.355 c -6.746,0 -12.822,3.139 -17.1,8.158 -0.023,0 -0.044,-10e-4 -0.068,-10e-4 -5.746,0 -11.004,2.281 -15.08,6.056 L -23.834,11.697 C -17.963,4.523 -9.467,0 0,0 Z"
             style="fill:none;fill-opacity:1;stroke:#5f5f5f;stroke-width:2.83464575;stroke-linecap:butt;stroke-linejoin:round;stroke-miterlimit:4;stroke-dasharray:none;stroke-opacity:1"
             id="path843"
             inkscape:connector-curvature="0" /></g><g
           id="g845"
           transform="translate(558.084,433.9375)"
           style="fill:none;fill-opacity:1;stroke:#5f5f5f;stroke-width:2.83464575;stroke-miterlimit:4;stroke-dasharray:none;stroke-opacity:1"><path
             d="m 0,0 c 4.277,5.017 10.354,8.155 17.1,8.155 6.746,0 12.824,-3.138 17.101,-8.155 0.022,0 0.045,0.001 0.067,0.001 5.525,0 10.593,-2.11 14.599,-5.626 5.299,2.252 10.571,4.407 15.635,6.354 -5.873,7.223 -14.4,11.782 -23.904,11.782 -0.034,0 -0.063,-0.002 -0.094,-0.002 -5.854,6.868 -14.17,11.164 -23.404,11.164 -9.235,0 -17.549,-4.296 -23.405,-11.164 -0.031,0 -0.06,0.002 -0.093,0.002 -9.465,0 -17.961,-4.523 -23.832,-11.696 l 15.082,-6.871 c 4.076,3.776 9.332,6.057 15.08,6.057 C -0.045,0.001 -0.023,0 0,0 Z"
             style="fill:none;fill-opacity:1;stroke:#5f5f5f;stroke-width:2.83464575;stroke-linecap:butt;stroke-linejoin:round;stroke-miterlimit:4;stroke-dasharray:none;stroke-opacity:1"
             id="path847"
             inkscape:connector-curvature="0" /></g><g
           id="g849"
           transform="translate(563.875,422.4414)"
           style="fill:none;fill-opacity:1;stroke:#5f5f5f;stroke-width:2.83464575;stroke-miterlimit:4;stroke-dasharray:none;stroke-opacity:1"><path
             d="m 0,0 c 2.828,3.319 6.848,5.395 11.309,5.395 4.461,0 8.48,-2.076 11.308,-5.395 0.016,0 0.029,0.002 0.045,0.002 1.744,0 3.418,-0.323 4.983,-0.908 5.06,2.288 10.257,4.579 15.431,6.777 -4.006,3.516 -9.074,5.626 -14.599,5.626 -0.022,0 -0.045,-10e-4 -0.067,-10e-4 -4.277,5.017 -10.355,8.155 -17.101,8.155 -6.746,0 -12.823,-3.138 -17.1,-8.155 -0.023,0 -0.045,10e-4 -0.068,10e-4 -5.748,0 -11.004,-2.281 -15.08,-6.057 l 14.873,-6.778 c 1.851,0.86 3.884,1.34 6.021,1.34 C -0.029,0.002 -0.014,0 0,0 Z"
             style="fill:none;fill-opacity:1;stroke:#5f5f5f;stroke-width:2.83464575;stroke-linecap:butt;stroke-linejoin:round;stroke-miterlimit:4;stroke-dasharray:none;stroke-opacity:1"
             id="path851"
             inkscape:connector-curvature="0" /></g><g
           id="g853"
           transform="translate(585.2988,419.9922)"
           style="fill:none;fill-opacity:1;stroke:#5f5f5f;stroke-width:2.83464575;stroke-miterlimit:4;stroke-dasharray:none;stroke-opacity:1"><path
             d="m 0,0 h -0.041 c -2.52,2.956 -6.1,4.805 -10.074,4.805 -3.975,0 -7.555,-1.849 -10.074,-4.805 h -0.04 c -1.261,0 -2.478,-0.191 -3.638,-0.54 l 12.912,-5.884 c 4.185,1.987 8.662,4.082 13.297,6.203 C 1.58,-0.077 0.799,0 0,0 Z"
             style="fill:none;fill-opacity:1;stroke:#5f5f5f;stroke-width:2.83464575;stroke-linecap:butt;stroke-linejoin:round;stroke-miterlimit:4;stroke-dasharray:none;stroke-opacity:1"
             id="path855"
             inkscape:connector-curvature="0" /></g><g
           id="g857"
           transform="translate(558.084,366.0625)"
           style="fill:none;fill-opacity:1;stroke:#5f5f5f;stroke-width:2.83464575;stroke-miterlimit:4;stroke-dasharray:none;stroke-opacity:1"><path
             d="m 0,0 c 4.277,-5.019 10.354,-8.157 17.1,-8.157 6.746,0 12.824,3.138 17.101,8.157 0.022,0 0.045,-0.001 0.067,-0.001 5.509,0 10.568,2.1 14.568,5.6 -5.193,2.197 -10.41,4.486 -15.486,6.771 -1.539,-0.563 -3.184,-0.876 -4.897,-0.876 -0.015,0 -0.029,0.002 -0.045,0.002 C 25.58,8.177 21.561,6.102 17.1,6.102 c -1.26,0 -2.479,0.181 -3.651,0.494 -2.98,0.794 -5.629,2.518 -7.658,4.9 -0.014,0 -0.029,-0.002 -0.043,-0.002 -2.123,0 -4.144,0.476 -5.986,1.325 -0.012,0.006 -0.026,0.009 -0.037,0.015 L -15.148,6.056 C -11.072,2.28 -5.814,-0.001 -0.068,-0.001 -0.045,-0.001 -0.023,0 0,0 Z"
             style="fill:none;fill-opacity:1;stroke:#5f5f5f;stroke-width:2.83464575;stroke-linecap:butt;stroke-linejoin:round;stroke-miterlimit:4;stroke-dasharray:none;stroke-opacity:1"
             id="path859"
             inkscape:connector-curvature="0" /></g><g
           id="g861"
           transform="translate(565.1094,380.0078)"
           style="fill:none;fill-opacity:1;stroke:#5f5f5f;stroke-width:2.83464575;stroke-miterlimit:4;stroke-dasharray:none;stroke-opacity:1"><path
             d="m 0,0 c 2.52,-2.956 6.1,-4.807 10.074,-4.807 0.735,0 1.449,0.083 2.153,0.205 3.101,0.537 5.867,2.192 7.921,4.602 h 0.041 c 0.754,0 1.495,0.071 2.217,0.199 C 17.775,2.311 13.303,4.396 9.125,6.373 L -3.678,0.539 C -3.664,0.535 -3.648,0.532 -3.635,0.528 -2.488,0.188 -1.285,0 -0.039,0 Z"
             style="fill:none;fill-opacity:1;stroke:#5f5f5f;stroke-width:2.83464575;stroke-linecap:butt;stroke-linejoin:round;stroke-miterlimit:4;stroke-dasharray:none;stroke-opacity:1"
             id="path863"
             inkscape:connector-curvature="0" /></g><g
           id="g865"
           transform="translate(248.313,353.5498)"
           style="fill:none;fill-opacity:1;stroke:#5f5f5f;stroke-width:2.83464575;stroke-miterlimit:4;stroke-dasharray:none;stroke-opacity:1"><path
             d="m 0,0 c -0.032,0 -0.062,0.004 -0.094,0.004 -5.853,-6.868 -14.17,-11.164 -23.404,-11.164 -9.233,0 -17.549,4.296 -23.403,11.164 -0.031,0 -0.061,-0.004 -0.093,-0.004 -9.647,0 -18.29,4.69 -24.17,12.102 -1.695,-0.652 -3.364,-1.277 -5.007,-1.879 6.394,-8.701 16.16,-14.28 27.124,-14.28 0.034,0 0.068,0.003 0.102,0.003 6.365,-7.467 15.408,-12.139 25.447,-12.139 10.041,0 19.084,4.672 25.448,12.139 0.035,0 0.069,-0.003 0.103,-0.003 10.519,0 19.947,5.129 26.341,13.231 l -4.829,2.2 C 17.705,4.39 9.323,0 0,0 Z"
             style="fill:none;fill-opacity:1;stroke:#5f5f5f;stroke-width:2.83464575;stroke-linecap:butt;stroke-linejoin:round;stroke-miterlimit:4;stroke-dasharray:none;stroke-opacity:1"
             id="path867"
             inkscape:connector-curvature="0" /></g><g
           id="g869"
           transform="translate(201.3188,446.4482)"
           style="fill:none;fill-opacity:1;stroke:#5f5f5f;stroke-width:2.83464575;stroke-miterlimit:4;stroke-dasharray:none;stroke-opacity:1"><path
             d="m 0,0 c 0.032,0 0.062,-0.002 0.093,-0.002 5.854,6.868 14.17,11.164 23.403,11.164 9.234,0 17.551,-4.296 23.404,-11.164 0.033,0 0.062,0.002 0.094,0.002 9.324,0 17.706,-4.389 23.566,-11.373 l 4.829,2.2 C 68.995,-1.07 59.567,4.059 49.047,4.059 49.013,4.059 48.979,4.056 48.944,4.056 42.58,11.521 33.537,16.193 23.496,16.193 13.457,16.193 4.413,11.521 -1.951,4.056 c -0.034,0 -0.068,0.003 -0.102,0.003 -10.973,0 -20.748,-5.589 -27.142,-14.303 1.643,-0.601 3.313,-1.226 5.008,-1.876 C -18.307,-4.697 -9.655,0 0,0 Z"
             style="fill:none;fill-opacity:1;stroke:#5f5f5f;stroke-width:2.83464575;stroke-linecap:butt;stroke-linejoin:round;stroke-miterlimit:4;stroke-dasharray:none;stroke-opacity:1"
             id="path871"
             inkscape:connector-curvature="0" /></g><g
           id="g873"
           transform="translate(248.313,446.4482)"
           style="fill:none;fill-opacity:1;stroke:#5f5f5f;stroke-width:2.83464575;stroke-miterlimit:4;stroke-dasharray:none;stroke-opacity:1"><path
             d="m 0,0 c -0.032,0 -0.062,-0.002 -0.094,-0.002 -5.853,6.868 -14.17,11.164 -23.404,11.164 -9.233,0 -17.549,-4.296 -23.403,-11.164 -0.032,0 -0.061,0.002 -0.093,0.002 -9.655,0 -18.307,-4.697 -24.187,-12.12 5.052,-1.938 10.301,-4.077 15.575,-6.313 4.055,3.698 9.26,5.923 14.94,5.923 0.023,0 0.046,-10e-4 0.068,-10e-4 4.278,5.017 10.354,8.156 17.1,8.156 6.748,0 12.824,-3.139 17.102,-8.156 0.022,0 0.044,10e-4 0.067,10e-4 5.596,0 10.728,-2.162 14.757,-5.761 l 15.138,6.898 C 17.706,-4.389 9.324,0 0,0 Z"
             style="fill:none;fill-opacity:1;stroke:#5f5f5f;stroke-width:2.83464575;stroke-linecap:butt;stroke-linejoin:round;stroke-miterlimit:4;stroke-dasharray:none;stroke-opacity:1"
             id="path875"
             inkscape:connector-curvature="0" /></g><g
           id="g877"
           transform="translate(241.9165,366.0625)"
           style="fill:none;fill-opacity:1;stroke:#5f5f5f;stroke-width:2.83464575;stroke-miterlimit:4;stroke-dasharray:none;stroke-opacity:1"><path
             d="m 0,0 c -4.277,-5.019 -10.354,-8.157 -17.102,-8.157 -6.746,0 -12.822,3.138 -17.098,8.157 -0.024,0 -0.046,-0.001 -0.07,-0.001 -5.674,0 -10.875,2.221 -14.928,5.912 -5.275,-2.238 -10.524,-4.383 -15.57,-6.322 5.88,-7.411 14.524,-12.102 24.17,-12.102 0.033,0 0.063,0.004 0.093,0.004 5.855,-6.868 14.17,-11.164 23.403,-11.164 9.235,0 17.551,4.296 23.405,11.164 0.032,0 0.061,-0.004 0.093,-0.004 9.324,0 17.705,4.39 23.565,11.374 L 14.823,5.76 C 10.795,2.161 5.663,-0.001 0.067,-0.001 0.045,-0.001 0.022,0 0,0 Z"
             style="fill:none;fill-opacity:1;stroke:#5f5f5f;stroke-width:2.83464575;stroke-linecap:butt;stroke-linejoin:round;stroke-miterlimit:4;stroke-dasharray:none;stroke-opacity:1"
             id="path879"
             inkscape:connector-curvature="0" /></g><g
           id="g881"
           transform="translate(241.9165,433.9375)"
           style="fill:none;fill-opacity:1;stroke:#5f5f5f;stroke-width:2.83464575;stroke-miterlimit:4;stroke-dasharray:none;stroke-opacity:1"><path
             d="m 0,0 c -4.277,5.017 -10.354,8.155 -17.102,8.155 -6.746,0 -12.822,-3.138 -17.099,-8.155 -0.023,0 -0.045,0.001 -0.069,0.001 -5.679,0 -10.884,-2.226 -14.94,-5.923 5.119,-2.17 10.258,-4.428 15.258,-6.682 1.709,0.714 3.561,1.11 5.498,1.11 0.015,0 0.03,-0.002 0.045,-0.002 2.828,3.319 6.846,5.394 11.307,5.394 4.463,0 8.481,-2.075 11.309,-5.394 0.016,0 0.03,0.002 0.045,0.002 1.948,0 3.81,-0.4 5.526,-1.122 l 15.046,6.855 C 10.796,-2.161 5.663,0.001 0.067,0.001 0.045,0.001 0.022,0 0,0 Z"
             style="fill:none;fill-opacity:1;stroke:#5f5f5f;stroke-width:2.83464575;stroke-linecap:butt;stroke-linejoin:round;stroke-miterlimit:4;stroke-dasharray:none;stroke-opacity:1"
             id="path883"
             inkscape:connector-curvature="0" /></g><g
           id="g885"
           transform="translate(236.1235,377.5586)"
           style="fill:none;fill-opacity:1;stroke:#5f5f5f;stroke-width:2.83464575;stroke-miterlimit:4;stroke-dasharray:none;stroke-opacity:1"><path
             d="m 0,0 c -2.828,-3.319 -6.846,-5.395 -11.309,-5.395 -4.461,0 -8.479,2.076 -11.307,5.395 -0.014,0 -0.03,-0.002 -0.044,-0.002 -1.935,0 -3.783,0.394 -5.49,1.106 -5.002,-2.256 -10.139,-4.516 -15.255,-6.689 4.053,-3.691 9.254,-5.912 14.928,-5.912 0.024,0 0.046,10e-4 0.07,10e-4 4.276,-5.019 10.352,-8.157 17.098,-8.157 6.748,0 12.825,3.138 17.102,8.157 0.022,0 0.045,-10e-4 0.067,-10e-4 5.596,0 10.728,2.162 14.756,5.761 L 5.57,1.119 C 3.854,0.397 1.992,-0.002 0.045,-0.002 0.03,-0.002 0.016,0 0,0 Z"
             style="fill:none;fill-opacity:1;stroke:#5f5f5f;stroke-width:2.83464575;stroke-linecap:butt;stroke-linejoin:round;stroke-miterlimit:4;stroke-dasharray:none;stroke-opacity:1"
             id="path887"
             inkscape:connector-curvature="0" /></g><g
           id="g889"
           transform="translate(234.8901,419.9922)"
           style="fill:none;fill-opacity:1;stroke:#5f5f5f;stroke-width:2.83464575;stroke-miterlimit:4;stroke-dasharray:none;stroke-opacity:1"><path
             d="m 0,0 c -2.521,2.956 -6.101,4.805 -10.075,4.805 -3.974,0 -7.553,-1.849 -10.073,-4.805 h -0.04 c -1.026,0 -2.022,-0.128 -2.984,-0.361 4.528,-2.066 8.905,-4.107 13.001,-6.045 L 3.071,-0.372 C 2.096,-0.132 1.082,0 0.04,0 Z"
             style="fill:none;fill-opacity:1;stroke:#5f5f5f;stroke-width:2.83464575;stroke-linecap:butt;stroke-linejoin:round;stroke-miterlimit:4;stroke-dasharray:none;stroke-opacity:1"
             id="path891"
             inkscape:connector-curvature="0" /></g><g
           id="g893"
           transform="translate(214.7017,380.0078)"
           style="fill:none;fill-opacity:1;stroke:#5f5f5f;stroke-width:2.83464575;stroke-miterlimit:4;stroke-dasharray:none;stroke-opacity:1"><path
             d="m 0,0 h 0.04 c 2.521,-2.956 6.1,-4.807 10.073,-4.807 3.975,0 7.555,1.851 10.075,4.807 h 0.041 c 1.042,0 2.053,0.132 3.03,0.371 L 10.019,6.404 C 5.925,4.466 1.55,2.425 -2.975,0.359 -2.017,0.127 -1.022,0 0,0 Z"
             style="fill:none;fill-opacity:1;stroke:#5f5f5f;stroke-width:2.83464575;stroke-linecap:butt;stroke-linejoin:round;stroke-miterlimit:4;stroke-dasharray:none;stroke-opacity:1"
             id="path895"
             inkscape:connector-curvature="0" /></g><g
           id="g897"
           transform="translate(150.7085,408.5283)"
           style="fill:none;fill-opacity:1;stroke:#5f5f5f;stroke-width:2.83464575;stroke-miterlimit:4;stroke-dasharray:none;stroke-opacity:1"><path
             d="m 0,0 c -3.088,-2.073 -5.045,-5.157 -5.028,-8.598 0.017,-3.411 1.972,-6.45 5.035,-8.493 -0.571,2.754 -0.876,5.617 -0.876,8.562 0,2.932 0.303,5.786 0.869,8.529 z"
             style="fill:none;fill-opacity:1;stroke:#5f5f5f;stroke-width:2.83464575;stroke-linecap:butt;stroke-linejoin:round;stroke-miterlimit:4;stroke-dasharray:none;stroke-opacity:1"
             id="path899"
             inkscape:connector-curvature="0" /></g><g
           id="g901"
           transform="translate(157.4771,411.0371)"
           style="fill:none;fill-opacity:1;stroke:#5f5f5f;stroke-width:2.83464575;stroke-miterlimit:4;stroke-dasharray:none;stroke-opacity:1"><path
             d="m 0,0 c -2.554,-0.356 -4.875,-1.237 -6.769,-2.509 -0.566,-2.743 -0.869,-5.596 -0.869,-8.529 0,-2.944 0.305,-5.808 0.876,-8.562 1.895,-1.263 4.213,-2.139 6.766,-2.485 -1.042,3.477 -1.618,7.186 -1.618,11.047 0,3.858 0.575,7.564 1.614,11.038 z"
             style="fill:none;fill-opacity:1;stroke:#5f5f5f;stroke-width:2.83464575;stroke-linecap:butt;stroke-linejoin:round;stroke-miterlimit:4;stroke-dasharray:none;stroke-opacity:1"
             id="path903"
             inkscape:connector-curvature="0" /></g><g
           id="g905"
           transform="translate(175.4175,407.3682)"
           style="fill:none;fill-opacity:1;stroke:#5f5f5f;stroke-width:2.83464575;stroke-miterlimit:4;stroke-dasharray:none;stroke-opacity:1"><path
             d="m 0,0 c -6.281,2.119 -12.419,3.867 -15.533,3.853 -0.822,-0.005 -1.623,-0.076 -2.407,-0.184 -1.039,-3.474 -1.615,-7.18 -1.615,-11.038 0,-3.861 0.576,-7.57 1.618,-11.047 0.818,-0.11 1.655,-0.177 2.514,-0.173 3.101,0.016 9.183,1.765 15.416,3.878 -0.629,2.328 -0.976,4.789 -0.976,7.342 0,2.562 0.35,5.033 0.983,7.369 z"
             style="fill:none;fill-opacity:1;stroke:#5f5f5f;stroke-width:2.83464575;stroke-linecap:butt;stroke-linejoin:round;stroke-miterlimit:4;stroke-dasharray:none;stroke-opacity:1"
             id="path907"
             inkscape:connector-curvature="0" /></g><g
           id="g909"
           transform="translate(175.4175,407.3682)"
           style="fill:none;fill-opacity:1;stroke:#5f5f5f;stroke-width:2.83464575;stroke-miterlimit:4;stroke-dasharray:none;stroke-opacity:1"><path
             d="m 0,0 c -0.633,-2.336 -0.983,-4.807 -0.983,-7.369 0,-2.553 0.347,-5.014 0.976,-7.342 6.128,2.077 12.403,4.505 16.137,5.99 2.111,0.839 3.41,1.377 3.413,1.378 v 0.002 c 0,0 -1.298,0.536 -3.407,1.373 C 12.404,-4.488 6.134,-2.068 0,0 Z"
             style="fill:none;fill-opacity:1;stroke:#5f5f5f;stroke-width:2.83464575;stroke-linecap:butt;stroke-linejoin:round;stroke-miterlimit:4;stroke-dasharray:none;stroke-opacity:1"
             id="path911"
             inkscape:connector-curvature="0" /></g><g
           id="g913"
           transform="translate(552.8457,386.5908)"
           style="fill:none;fill-opacity:1;stroke:#5f5f5f;stroke-width:2.83464575;stroke-miterlimit:4;stroke-dasharray:none;stroke-opacity:1"><path
             d="m 0,0 -3.113,-1.419 -14.496,-6.604 -15.698,-7.154 -5.099,-2.323 -114.767,-52.295 -0.161,-0.073 -0.159,0.073 -114.147,52.013 -5.091,2.321 -15.734,7.169 -14.535,6.623 -3.12,1.422 -11.361,5.177 c -2.271,-1.106 -4.712,-2.283 -7.288,-3.513 l 13.471,-6.139 3.2,-1.458 14.125,-6.435 14.797,-6.743 5.222,-2.379 120.448,-54.885 0.172,-0.079 0.174,0.079 120.953,55.114 5.258,2.396 14.963,6.818 14.029,6.393 3.152,1.436 12.836,5.849 c -2.578,1.23 -5.019,2.409 -7.289,3.511 z"
             style="fill:none;fill-opacity:1;stroke:#5f5f5f;stroke-width:2.83464575;stroke-linecap:butt;stroke-linejoin:round;stroke-miterlimit:4;stroke-dasharray:none;stroke-opacity:1"
             id="path915"
             inkscape:connector-curvature="0" /></g><g
           id="g917"
           transform="translate(249.8452,384.9219)"
           style="fill:none;fill-opacity:1;stroke:#5f5f5f;stroke-width:2.83464575;stroke-miterlimit:4;stroke-dasharray:none;stroke-opacity:1"><path
             d="m 0,0 14.535,-6.623 15.734,-7.169 5.092,-2.321 114.146,-52.013 0.16,-0.073 0.161,0.073 114.766,52.295 5.1,2.323 15.697,7.154 14.496,6.604 3.113,1.419 10.743,4.894 c -5.627,2.734 -10.198,5.009 -13.176,6.506 l -4.41,-2.008 -3.295,-1.501 -15.02,-6.846 -16.006,-7.292 -5.158,-2.351 -106.875,-48.7 -0.136,-0.062 -0.135,0.062 L 43.41,-7.272 38.267,-4.929 22.292,2.352 7.321,9.173 4.053,10.661 -1.309,13.104 C -4.303,11.6 -8.869,9.325 -14.48,6.599 L -3.119,1.422 Z"
             style="fill:none;fill-opacity:1;stroke:#5f5f5f;stroke-width:2.83464575;stroke-linecap:butt;stroke-linejoin:round;stroke-miterlimit:4;stroke-dasharray:none;stroke-opacity:1"
             id="path919"
             inkscape:connector-curvature="0" /></g><g
           id="g921"
           transform="translate(526.3574,409.2197)"
           style="fill:none;fill-opacity:1;stroke:#5f5f5f;stroke-width:2.83464575;stroke-miterlimit:4;stroke-dasharray:none;stroke-opacity:1"><path
             d="m 0,0 -16.309,7.433 c -2.423,-4.963 -3.818,-10.624 -3.818,-16.654 0,-6.028 1.395,-11.689 3.818,-16.653 L 0,-18.441 c -0.998,2.864 -1.555,5.969 -1.555,9.22 0,3.252 0.557,6.358 1.555,9.221 z"
             style="fill:none;fill-opacity:1;stroke:#5f5f5f;stroke-width:2.83464575;stroke-linecap:butt;stroke-linejoin:round;stroke-miterlimit:4;stroke-dasharray:none;stroke-opacity:1"
             id="path923"
             inkscape:connector-curvature="0" /></g><g
           id="g925"
           transform="translate(541.9941,402.0947)"
           style="fill:none;fill-opacity:1;stroke:#5f5f5f;stroke-width:2.83464575;stroke-miterlimit:4;stroke-dasharray:none;stroke-opacity:1"><path
             d="m 0,0 -15.637,7.125 c -0.998,-2.863 -1.554,-5.969 -1.554,-9.221 0,-3.251 0.556,-6.356 1.554,-9.22 L 0,-4.191 c -0.076,0.687 -0.127,1.385 -0.127,2.095 0,0.711 0.051,1.408 0.127,2.096 z"
             style="fill:none;fill-opacity:1;stroke:#5f5f5f;stroke-width:2.83464575;stroke-linecap:butt;stroke-linejoin:round;stroke-miterlimit:4;stroke-dasharray:none;stroke-opacity:1"
             id="path927"
             inkscape:connector-curvature="0" /></g><g
           id="g929"
           transform="translate(541.9941,402.0947)"
           style="fill:none;fill-opacity:1;stroke:#5f5f5f;stroke-width:2.83464575;stroke-miterlimit:4;stroke-dasharray:none;stroke-opacity:1"><path
             d="m 0,0 c -0.076,-0.688 -0.127,-1.385 -0.127,-2.096 0,-0.71 0.051,-1.408 0.127,-2.095 l 3.527,1.607 1.073,0.488 -1.073,0.49 z"
             style="fill:none;fill-opacity:1;stroke:#5f5f5f;stroke-width:2.83464575;stroke-linecap:butt;stroke-linejoin:round;stroke-miterlimit:4;stroke-dasharray:none;stroke-opacity:1"
             id="path931"
             inkscape:connector-curvature="0" /></g><g
           id="g933"
           transform="translate(273.5146,409.6045)"
           style="fill:none;fill-opacity:1;stroke:#5f5f5f;stroke-width:2.83464575;stroke-miterlimit:4;stroke-dasharray:none;stroke-opacity:1"><path
             d="m 0,0 c 1.085,-2.969 1.683,-6.209 1.683,-9.605 0,-3.397 -0.598,-6.637 -1.683,-9.606 l 16.261,-7.41 c 2.535,5.047 3.993,10.84 3.993,17.016 0,6.176 -1.458,11.968 -3.993,17.016 z"
             style="fill:none;fill-opacity:1;stroke:#5f5f5f;stroke-width:2.83464575;stroke-linecap:butt;stroke-linejoin:round;stroke-miterlimit:4;stroke-dasharray:none;stroke-opacity:1"
             id="path935"
             inkscape:connector-curvature="0" /></g><g
           id="g937"
           transform="translate(273.5146,409.6045)"
           style="fill:none;fill-opacity:1;stroke:#5f5f5f;stroke-width:2.83464575;stroke-miterlimit:4;stroke-dasharray:none;stroke-opacity:1"><path
             d="m 0,0 -15.554,-7.086 c 0.111,-0.822 0.172,-1.663 0.172,-2.519 0,-0.857 -0.061,-1.697 -0.172,-2.518 L 0,-19.211 c 1.085,2.969 1.683,6.209 1.683,9.606 C 1.683,-6.209 1.085,-2.969 0,0 Z"
             style="fill:none;fill-opacity:1;stroke:#5f5f5f;stroke-width:2.83464575;stroke-linecap:butt;stroke-linejoin:round;stroke-miterlimit:4;stroke-dasharray:none;stroke-opacity:1"
             id="path939"
             inkscape:connector-curvature="0" /></g><g
           id="g941"
           transform="translate(257.9604,402.5186)"
           style="fill:none;fill-opacity:1;stroke:#5f5f5f;stroke-width:2.83464575;stroke-miterlimit:4;stroke-dasharray:none;stroke-opacity:1"><path
             d="M 0,0 -3.497,-1.594 -5.527,-2.52 -3.497,-3.444 0,-5.037 C 0.111,-4.216 0.172,-3.376 0.172,-2.52 0.172,-1.663 0.111,-0.822 0,0 Z"
             style="fill:none;fill-opacity:1;stroke:#5f5f5f;stroke-width:2.83464575;stroke-linecap:butt;stroke-linejoin:round;stroke-miterlimit:4;stroke-dasharray:none;stroke-opacity:1"
             id="path943"
             inkscape:connector-curvature="0" /></g><g
           id="g945"
           transform="translate(545.5215,399.5107)"
           style="fill:none;fill-opacity:1;stroke:#5f5f5f;stroke-width:2.83464575;stroke-miterlimit:4;stroke-dasharray:none;stroke-opacity:1"><path
             d="m 0,0 -3.527,-1.607 -15.637,-7.125 -16.309,-7.433 c -2.423,4.964 -3.818,10.625 -3.818,16.653 0,6.03 1.395,11.691 3.818,16.654 L -19.164,9.709 -3.527,2.584 0,0.978 1.072,0.488 Z m -145.88,-66.473 -0.13,-0.059 -0.128,0.059 -104.377,47.563 c 3.04,5.689 4.786,12.318 4.786,19.398 0,7.08 -1.746,13.709 -4.786,19.401 l 104.378,47.562 0.127,0.058 0.13,-0.06 105.165,-47.92 c -2.924,-5.61 -4.599,-12.108 -4.599,-19.041 0,-6.931 1.675,-13.43 4.601,-19.04 z m -109.866,49.946 -16.261,7.41 -15.554,7.088 -3.497,1.592 -2.03,0.925 2.03,0.926 3.497,1.594 15.554,7.086 16.261,7.411 c 2.535,-5.048 3.993,-10.84 3.993,-17.017 0,-6.176 -1.458,-11.968 -3.993,-17.015 z M 110.418,44.331 C 104.184,44.301 93.91,41.372 82.094,37.044 80.445,36.44 78.768,35.81 77.064,35.156 72,33.209 66.729,31.054 61.43,28.802 56.256,26.604 51.059,24.313 45.998,22.024 44.695,21.436 43.4,20.848 42.119,20.261 37.484,18.14 33.008,16.045 28.822,14.058 l 4.237,-1.931 c 4.248,2 8.861,4.134 13.654,6.298 1.053,0.474 2.111,0.95 3.178,1.426 4.664,2.083 9.459,4.17 14.236,6.173 5.449,2.287 10.871,4.459 16.037,6.389 1.957,0.73 3.873,1.423 5.744,2.074 9.756,3.401 18.176,5.643 23.487,5.669 22.437,0.108 40.71,-17.562 40.82,-39.47 0.105,-21.907 -17.996,-39.755 -40.432,-39.864 -5.367,-0.026 -13.935,2.231 -23.859,5.677 -1.873,0.65 -3.795,1.343 -5.752,2.071 -5.176,1.925 -10.602,4.093 -16.055,6.372 -4.785,2.001 -9.584,4.085 -14.252,6.164 -1.07,0.476 -2.131,0.952 -3.183,1.426 -4.803,2.163 -9.422,4.295 -13.676,6.293 -1.149,0.541 -2.274,1.072 -3.367,1.591 -2.629,1.246 -5.078,2.421 -7.313,3.5 C 14.803,-2.446 9.791,0.085 9.137,0.415 L 5.041,2.428 0.48,4.506 l -3.294,1.502 -15.02,6.844 -16.006,7.293 -5.158,2.35 -106.875,48.699 -0.137,0.063 -0.134,-0.061 -106.123,-48.357 -5.143,-2.344 -15.976,-7.28 -14.97,-6.82 -3.269,-1.49 -5.359,-2.442 -4.296,-1.959 c 0,0 -0.019,-0.009 -0.032,-0.016 -0.356,-0.181 -5.423,-2.753 -13.167,-6.509 -2.23,-1.081 -4.676,-2.257 -7.3,-3.505 -1.094,-0.521 -2.215,-1.051 -3.364,-1.594 -4.069,-1.918 -8.475,-3.96 -13.051,-6.032 -1.036,-0.469 -2.082,-0.94 -3.135,-1.411 -4.622,-2.07 -9.379,-4.147 -14.123,-6.144 -5.516,-2.322 -11.009,-4.532 -16.241,-6.488 -1.94,-0.725 -3.843,-1.415 -5.698,-2.063 -9.698,-3.388 -18.073,-5.621 -23.358,-5.647 -22.282,-0.109 -40.431,17.439 -40.539,39.198 -0.105,21.757 17.872,39.482 40.154,39.591 5.341,0.025 13.859,-2.225 23.724,-5.659 1.856,-0.646 3.762,-1.337 5.702,-2.06 5.241,-1.954 10.738,-4.16 16.257,-6.478 4.749,-1.995 9.509,-4.07 14.133,-6.136 1.054,-0.472 2.101,-0.943 3.139,-1.412 4.582,-2.072 8.99,-4.113 13.062,-6.03 l 4.315,1.966 c -4.096,1.939 -8.473,3.98 -13.001,6.045 -1.24,0.567 -2.492,1.134 -3.754,1.702 -5,2.255 -10.139,4.513 -15.258,6.683 -5.273,2.235 -10.522,4.375 -15.574,6.312 -1.695,0.651 -3.365,1.276 -5.009,1.876 -12.028,4.398 -22.502,7.369 -28.794,7.338 -24.047,-0.117 -43.446,-19.707 -43.329,-43.754 0.118,-24.048 19.708,-43.447 43.756,-43.33 6.233,0.032 16.54,2.976 28.386,7.315 1.642,0.602 3.311,1.227 5.006,1.879 5.046,1.939 10.295,4.084 15.57,6.322 5.116,2.173 10.253,4.433 15.255,6.688 1.26,0.57 2.513,1.138 3.754,1.705 4.524,2.066 8.899,4.107 12.993,6.045 1.141,0.541 2.261,1.075 3.356,1.596 2.576,1.231 5.017,2.407 7.288,3.513 5.612,2.726 10.178,5.001 13.172,6.506 l 5.361,-2.444 3.269,-1.488 14.97,-6.821 15.976,-7.281 5.142,-2.343 106.122,-48.357 0.135,-0.062 0.137,0.062 106.875,48.7 5.158,2.351 16.006,7.292 15.02,6.846 3.294,1.501 4.411,2.008 c 2.978,-1.497 7.548,-3.772 13.175,-6.505 2.27,-1.102 4.711,-2.281 7.289,-3.511 1.094,-0.522 2.217,-1.054 3.358,-1.594 4.178,-1.977 8.65,-4.062 13.281,-6.174 1.293,-0.59 2.602,-1.181 3.918,-1.774 5.076,-2.285 10.293,-4.574 15.486,-6.772 5.307,-2.244 10.586,-4.391 15.663,-6.333 1.705,-0.652 3.382,-1.278 5.035,-1.88 12.008,-4.374 22.455,-7.322 28.752,-7.291 24.213,0.118 43.748,19.842 43.631,44.057 -0.122,24.215 -19.846,43.745 -44.061,43.628 z"
             style="fill:none;fill-opacity:1;stroke:#5f5f5f;stroke-width:2.83464575;stroke-linecap:butt;stroke-linejoin:round;stroke-miterlimit:4;stroke-dasharray:none;stroke-opacity:1"
             id="path947"
             inkscape:connector-curvature="0" /></g><g
           id="g949"
           transform="translate(649.3359,391.6982)"
           style="fill:none;fill-opacity:1;stroke:#5f5f5f;stroke-width:2.83464575;stroke-miterlimit:4;stroke-dasharray:none;stroke-opacity:1"><path
             d="M 0,0 C 2.875,2.081 4.684,5.06 4.668,8.371 4.65,11.654 2.844,14.594 -0.01,16.644 0.533,13.958 0.824,11.167 0.824,8.301 0.824,5.449 0.535,2.674 0,0 Z"
             style="fill:none;fill-opacity:1;stroke:#5f5f5f;stroke-width:2.83464575;stroke-linecap:butt;stroke-linejoin:round;stroke-miterlimit:4;stroke-dasharray:none;stroke-opacity:1"
             id="path951"
             inkscape:connector-curvature="0" /></g><g
           id="g953"
           transform="translate(642.5137,388.9346)"
           style="fill:none;fill-opacity:1;stroke:#5f5f5f;stroke-width:2.83464575;stroke-miterlimit:4;stroke-dasharray:none;stroke-opacity:1"><path
             d="m 0,0 c 2.602,0.421 4.938,1.401 6.822,2.764 0.535,2.674 0.824,5.449 0.824,8.3 0,2.867 -0.291,5.658 -0.833,8.343 C 4.93,20.762 2.594,21.732 -0.006,22.142 1.043,18.656 1.623,14.938 1.623,11.064 1.623,7.197 1.045,3.482 0,0 Z"
             style="fill:none;fill-opacity:1;stroke:#5f5f5f;stroke-width:2.83464575;stroke-linecap:butt;stroke-linejoin:round;stroke-miterlimit:4;stroke-dasharray:none;stroke-opacity:1"
             id="path955"
             inkscape:connector-curvature="0" /></g><g
           id="g957"
           transform="translate(624.5215,392.3896)"
           style="fill:none;fill-opacity:1;stroke:#5f5f5f;stroke-width:2.83464575;stroke-miterlimit:4;stroke-dasharray:none;stroke-opacity:1"><path
             d="m 0,0 c 6.18,-2.046 12.133,-3.703 15.178,-3.688 0.965,0.004 1.904,0.086 2.814,0.233 1.045,3.482 1.623,7.197 1.623,11.064 0,3.873 -0.58,7.592 -1.629,11.078 -0.941,0.149 -1.918,0.226 -2.918,0.22 C 12.037,18.892 6.139,17.23 0.008,15.184 0.678,12.788 1.043,10.246 1.043,7.609 1.043,4.959 0.674,2.405 0,0 Z"
             style="fill:none;fill-opacity:1;stroke:#5f5f5f;stroke-width:2.83464575;stroke-linecap:butt;stroke-linejoin:round;stroke-miterlimit:4;stroke-dasharray:none;stroke-opacity:1"
             id="path959"
             inkscape:connector-curvature="0" /></g><g
           id="g961"
           transform="translate(608.4102,398.251)"
           style="fill:none;fill-opacity:1;stroke:#5f5f5f;stroke-width:2.83464575;stroke-miterlimit:4;stroke-dasharray:none;stroke-opacity:1"><path
             d="m 0,0 c 3.973,-1.55 10.143,-3.885 16.111,-5.861 0.674,2.405 1.043,4.959 1.043,7.609 0,2.637 -0.365,5.179 -1.035,7.574 C 10.158,7.332 3.984,4.98 0.008,3.422 -1.586,2.797 -2.826,2.3 -3.555,2.005 -4.029,1.813 -4.295,1.704 -4.295,1.704 c 0,0 0.264,-0.106 0.736,-0.297 C -2.83,1.114 -1.592,0.62 0,0 Z"
             style="fill:none;fill-opacity:1;stroke:#5f5f5f;stroke-width:2.83464575;stroke-linecap:butt;stroke-linejoin:round;stroke-miterlimit:4;stroke-dasharray:none;stroke-opacity:1"
             id="path963"
             inkscape:connector-curvature="0" /></g><g
           id="g965"
           transform="translate(194.6489,410.2822)"
           style="fill:none;fill-opacity:1;stroke:#5f5f5f;stroke-width:2.83464575;stroke-miterlimit:4;stroke-dasharray:none;stroke-opacity:1"><path
             d="m 0,0 c -4.721,2.077 -9.787,4.229 -14.77,6.214 -5.924,2.358 -11.728,4.474 -16.681,5.93 -2.095,0.615 -4.035,1.109 -5.77,1.457 -1.836,0.366 -3.444,0.569 -4.751,0.563 -14.282,-0.07 -25.806,-11.071 -25.741,-24.573 0.067,-13.501 11.698,-24.387 25.981,-24.32 1.253,0.007 2.78,0.202 4.52,0.55 1.729,0.346 3.67,0.845 5.766,1.464 4.937,1.456 10.738,3.581 16.666,5.95 4.976,1.989 10.04,4.147 14.759,6.23 1.059,0.467 2.097,0.929 3.116,1.385 3.002,1.344 5.814,2.632 8.303,3.789 1.209,0.562 2.34,1.09 3.384,1.583 3.874,1.824 12.678,5.934 12.678,5.934 l 8.964,4.086 4.293,1.955 11.36,5.177 3.118,1.421 14.536,6.623 15.734,7.17 5.092,2.32 114.148,52.014 0.158,0.073 0.161,-0.073 114.765,-52.296 5.101,-2.324 15.697,-7.154 14.495,-6.603 3.113,-1.419 10.873,-4.955 4.191,-1.909 6.465,-2.947 7.899,-3.598 c 0,0 3.386,-1.622 7.347,-3.485 1.041,-0.488 2.178,-1.019 3.385,-1.582 2.687,-1.245 5.758,-2.647 9.041,-4.112 1.021,-0.455 2.061,-0.915 3.119,-1.38 4.733,-2.076 9.789,-4.221 14.756,-6.192 5.947,-2.361 11.756,-4.466 16.703,-5.904 2.106,-0.613 4.055,-1.105 5.791,-1.442 1.75,-0.34 3.285,-0.523 4.543,-0.517 14.381,0.07 25.986,11.146 25.918,24.742 -0.066,13.594 -11.777,24.556 -26.158,24.488 -1.203,-0.006 -2.66,-0.188 -4.311,-0.509 -1.73,-0.336 -3.679,-0.828 -5.789,-1.444 -4.931,-1.442 -10.736,-3.554 -16.687,-5.925 -4.959,-1.975 -10.014,-4.126 -14.746,-6.208 -1.057,-0.466 -2.096,-0.927 -3.116,-1.384 -3.269,-1.461 -6.328,-2.861 -9.007,-4.106 l 7.593,-3.458 c 1.104,0.474 2.42,1.037 3.889,1.653 1.049,0.442 2.178,0.911 3.365,1.401 4.655,1.917 10.223,4.123 15.551,6.018 7.023,2.5 13.623,4.455 17.121,4.473 0.156,0 0.307,-0.016 0.461,-0.018 2.408,-0.042 4.697,-0.493 6.777,-1.283 6.159,-2.338 10.471,-7.595 10.502,-13.74 0.03,-6.189 -4.291,-11.524 -10.496,-13.897 -2.08,-0.795 -4.371,-1.253 -6.785,-1.301 -0.103,-0.001 -0.205,-0.013 -0.31,-0.014 -3.518,-0.018 -10.188,1.939 -17.282,4.446 -5.334,1.887 -10.9,4.082 -15.552,5.989 -1.186,0.488 -2.317,0.955 -3.364,1.394 -1.5,0.629 -2.84,1.198 -3.959,1.679 -1.875,0.804 -3.14,1.363 -3.509,1.525 -0.075,0.033 -0.122,0.055 -0.122,0.055 l -7.263,3.495 -0.301,0.137 -9.445,4.304 -4.717,2.151 -4.221,1.922 -12.953,5.903 -3.154,1.436 -14.028,6.394 -14.964,6.818 -5.256,2.395 -120.953,55.113 -0.174,0.081 -0.172,-0.079 L 84.245,24.864 79.022,22.484 64.225,15.742 50.1,9.306 46.899,7.847 33.428,1.708 29.121,-0.254 25.909,-1.718 14.842,-6.76 13.157,-7.528 7.112,-10.283 c 0,0 -1.316,-0.596 -3.477,-1.54 -0.845,-0.369 -1.823,-0.794 -2.905,-1.257 -1.04,-0.447 -2.176,-0.931 -3.388,-1.44 -4.558,-1.915 -10.159,-4.181 -15.562,-6.142 -7.096,-2.576 -13.846,-4.625 -17.419,-4.643 -0.029,0 -0.058,0.004 -0.088,0.004 -2.38,-0.002 -4.652,0.401 -6.722,1.136 -6.321,2.245 -10.777,7.567 -10.807,13.798 -0.031,6.27 4.434,11.66 10.798,13.942 2.056,0.737 4.307,1.154 6.671,1.165 0.019,0 0.042,-0.002 0.061,-0.002 3.607,-0.005 10.387,-2.052 17.509,-4.635 5.405,-1.961 11.005,-4.227 15.561,-6.142 1.211,-0.51 2.347,-0.993 3.387,-1.44 1.082,-0.465 2.061,-0.891 2.906,-1.261 l 7.816,3.561 C 8.957,-4.021 6.134,-2.731 3.116,-1.383 2.098,-0.928 1.059,-0.466 0,0 Z"
             style="fill:none;fill-opacity:1;stroke:#5f5f5f;stroke-width:2.83464575;stroke-linecap:butt;stroke-linejoin:round;stroke-miterlimit:4;stroke-dasharray:none;stroke-opacity:1"
             id="path967"
             inkscape:connector-curvature="0" /></g><g
           id="g969"
           transform="translate(204.2036,419.0615)"
           style="fill:none;fill-opacity:1;stroke:#5f5f5f;stroke-width:2.83464575;stroke-miterlimit:4;stroke-dasharray:none;stroke-opacity:1"><path
             d="m 0,0 c -4.624,2.066 -9.384,4.142 -14.133,6.136 -5.519,2.318 -11.016,4.524 -16.258,6.478 -1.939,0.723 -3.845,1.414 -5.701,2.06 -9.865,3.434 -18.384,5.684 -23.724,5.659 -22.282,-0.108 -40.259,-17.834 -40.154,-39.591 0.108,-21.759 18.257,-39.306 40.539,-39.198 5.285,0.026 13.66,2.26 23.358,5.647 1.855,0.648 3.758,1.338 5.698,2.063 5.231,1.956 10.725,4.166 16.241,6.488 4.744,1.997 9.501,4.074 14.123,6.144 1.053,0.471 2.099,0.942 3.135,1.411 4.576,2.072 8.981,4.114 13.051,6.032 1.149,0.543 2.27,1.073 3.364,1.594 2.624,1.248 5.069,2.425 7.3,3.505 7.744,3.757 12.81,6.328 13.167,6.509 h -0.002 l 0.034,0.016 4.296,1.959 5.359,2.442 3.269,1.49 14.97,6.82 15.976,7.28 5.143,2.344 106.123,48.358 0.134,0.06 0.137,-0.062 106.875,-48.7 5.158,-2.35 16.006,-7.293 15.019,-6.844 3.295,-1.502 4.561,-2.078 4.096,-2.013 c 0.654,-0.33 5.666,-2.861 13.189,-6.499 2.234,-1.079 4.684,-2.254 7.313,-3.5 1.093,-0.518 2.218,-1.05 3.367,-1.591 4.254,-1.998 8.873,-4.129 13.676,-6.293 1.052,-0.474 2.113,-0.95 3.183,-1.425 4.668,-2.079 9.467,-4.163 14.252,-6.164 5.453,-2.28 10.879,-4.448 16.055,-6.372 1.957,-0.729 3.879,-1.421 5.752,-2.072 9.924,-3.446 18.492,-5.703 23.859,-5.677 22.436,0.109 40.537,17.958 40.432,39.864 -0.11,21.908 -18.383,39.578 -40.821,39.47 -5.31,-0.026 -13.73,-2.268 -23.486,-5.668 -1.871,-0.652 -3.787,-1.345 -5.744,-2.075 C 416.316,10.933 410.894,8.76 405.445,6.474 400.667,4.471 395.873,2.383 391.208,0.3 c -1.066,-0.476 -2.125,-0.951 -3.177,-1.426 -4.793,-2.164 -9.406,-4.298 -13.655,-6.298 l 14.481,-6.598 c 2.68,1.245 5.738,2.645 9.008,4.106 1.019,0.457 2.058,0.918 3.115,1.384 4.732,2.082 9.787,4.233 14.746,6.208 5.951,2.371 11.756,4.483 16.688,5.925 2.109,0.616 4.058,1.108 5.789,1.444 1.65,0.32 3.107,0.503 4.31,0.509 14.381,0.068 26.092,-10.894 26.158,-24.489 0.069,-13.595 -11.537,-24.671 -25.918,-24.742 -1.257,-0.006 -2.793,0.178 -4.543,0.518 -1.736,0.337 -3.685,0.829 -5.791,1.441 -4.947,1.439 -10.755,3.544 -16.703,5.905 -4.966,1.97 -10.023,4.116 -14.756,6.192 -1.058,0.465 -2.097,0.925 -3.119,1.38 -3.283,1.465 -6.353,2.867 -9.041,4.112 -1.207,0.563 -2.343,1.094 -3.384,1.582 -3.961,1.862 -7.348,3.484 -7.348,3.484 l -7.899,3.599 -6.464,2.946 -4.192,1.91 -10.873,4.955 -3.113,1.419 -14.494,6.603 -15.698,7.153 -5.101,2.325 -114.765,52.296 -0.161,0.073 L 195.15,64.143 81.002,12.129 75.911,9.809 60.177,2.639 45.641,-3.984 l -3.119,-1.421 -11.36,-5.177 -4.293,-1.955 -8.964,-4.086 c 0,0 -8.803,-4.11 -12.677,-5.935 -1.044,-0.492 -2.175,-1.02 -3.384,-1.583 -2.49,-1.156 -5.302,-2.444 -8.304,-3.789 -1.019,-0.456 -2.057,-0.918 -3.115,-1.384 -4.72,-2.083 -9.783,-4.242 -14.76,-6.23 -5.928,-2.369 -11.728,-4.494 -16.666,-5.95 -2.096,-0.619 -4.037,-1.118 -5.766,-1.464 -1.74,-0.349 -3.266,-0.543 -4.52,-0.55 -14.282,-0.067 -25.914,10.819 -25.981,24.32 -0.065,13.501 11.459,24.502 25.742,24.573 1.306,0.006 2.915,-0.197 4.751,-0.564 1.734,-0.347 3.674,-0.842 5.769,-1.457 4.953,-1.455 10.757,-3.571 16.682,-5.929 4.982,-1.985 10.049,-4.137 14.769,-6.214 1.059,-0.466 2.098,-0.928 3.117,-1.383 3.017,-1.349 5.84,-2.639 8.336,-3.796 l 14.303,6.517 C 12.129,-5.524 7.721,-3.483 3.139,-1.412 2.101,-0.942 1.054,-0.472 0,0 Z"
             style="fill:none;fill-opacity:1;stroke:#5f5f5f;stroke-width:2.83464575;stroke-linecap:butt;stroke-linejoin:round;stroke-miterlimit:4;stroke-dasharray:none;stroke-opacity:1"
             id="path971"
             inkscape:connector-curvature="0" /></g><g
           id="g973"
           transform="translate(504.8066,419.04)"
           style="fill:none;fill-opacity:1;stroke:#5f5f5f;stroke-width:2.83464575;stroke-miterlimit:4;stroke-dasharray:none;stroke-opacity:1"><path
             d="m 0,0 -105.165,47.92 -0.13,0.059 -0.127,-0.057 L -209.8,0.359 c 3.04,-5.691 4.786,-12.32 4.786,-19.4 0,-7.08 -1.746,-13.709 -4.786,-19.398 l 104.377,-47.563 0.128,-0.06 0.13,0.06 105.167,47.921 C -2.924,-32.472 -4.6,-25.973 -4.6,-19.041 -4.6,-12.108 -2.924,-5.61 0,0 Z"
             style="fill:none;fill-opacity:1;stroke:#5f5f5f;stroke-width:2.83464575;stroke-linecap:butt;stroke-linejoin:round;stroke-miterlimit:4;stroke-dasharray:none;stroke-opacity:1"
             id="path975"
             inkscape:connector-curvature="0" /></g></g></g></g><g
     style="display:inline"
     transform="matrix(1.3333333,0,0,-1.3333333,-125.75135,661.91638)"
     inkscape:label="MTT049741-511-CDD51-PT01 복사"
     inkscape:groupmode="layer"
     id="g1126"><g
       style="fill:none;fill-opacity:1;stroke:#ffffff;stroke-width:2.83464575;stroke-miterlimit:4;stroke-dasharray:none;stroke-opacity:1"
       id="g1124"
       transform="translate(0,3)"><g
         style="fill:none;fill-opacity:1;stroke:#ffffff;stroke-width:2.83464575;stroke-miterlimit:4;stroke-dasharray:none;stroke-opacity:1"
         clip-path="url(#clipPath831)"
         id="g1122"><g
           style="fill:none;fill-opacity:1;stroke:#ffffff;stroke-width:2.83464575;stroke-miterlimit:4;stroke-dasharray:none;stroke-opacity:1"
           transform="translate(551.6855,446.4482)"
           id="g980"><path
             inkscape:connector-curvature="0"
             id="path978"
             style="fill:none;fill-opacity:1;stroke:#ffffff;stroke-width:2.83464575;stroke-linecap:butt;stroke-linejoin:round;stroke-miterlimit:4;stroke-dasharray:none;stroke-opacity:1"
             d="m 0,0 c 0.033,0 0.063,-0.002 0.094,-0.002 5.855,6.868 14.17,11.164 23.404,11.164 9.234,0 17.551,-4.296 23.404,-11.164 0.032,0 0.061,0.002 0.094,0.002 9.504,0 18.031,-4.559 23.904,-11.781 1.704,0.653 3.381,1.284 5.03,1.887 C 69.531,-1.382 59.873,4.059 49.049,4.059 49.014,4.059 48.98,4.056 48.945,4.056 42.58,11.521 33.539,16.193 23.498,16.193 13.459,16.193 4.414,11.521 -1.949,4.056 c -0.035,0 -0.069,0.003 -0.102,0.003 -10.662,0 -20.193,-5.272 -26.592,-13.562 l 4.811,-2.192 C -17.961,-4.522 -9.465,0 0,0 Z" /></g><g
           style="fill:none;fill-opacity:1;stroke:#ffffff;stroke-width:2.83464575;stroke-miterlimit:4;stroke-dasharray:none;stroke-opacity:1"
           transform="translate(598.6816,353.5498)"
           id="g984"><path
             inkscape:connector-curvature="0"
             id="path982"
             style="fill:none;fill-opacity:1;stroke:#ffffff;stroke-width:2.83464575;stroke-linecap:butt;stroke-linejoin:round;stroke-miterlimit:4;stroke-dasharray:none;stroke-opacity:1"
             d="m 0,0 c -0.033,0 -0.063,0.004 -0.094,0.004 -5.853,-6.868 -14.17,-11.164 -23.404,-11.164 -9.234,0 -17.549,4.296 -23.404,11.164 -0.03,0 -0.061,-0.004 -0.092,-0.004 -9.467,0 -17.963,4.523 -23.834,11.697 l -4.809,-2.193 c 6.397,-8.289 15.93,-13.561 26.59,-13.561 0.033,0 0.068,0.003 0.102,0.003 6.365,-7.467 15.408,-12.139 25.447,-12.139 10.041,0 19.082,4.672 25.447,12.139 0.035,0 0.069,-0.003 0.104,-0.003 10.826,0 20.484,5.442 26.883,13.955 C 27.283,10.5 25.605,11.126 23.9,11.778 18.025,4.558 9.502,0 0,0 Z" /></g><g
           style="fill:none;fill-opacity:1;stroke:#ffffff;stroke-width:2.83464575;stroke-miterlimit:4;stroke-dasharray:none;stroke-opacity:1"
           transform="translate(551.6875,353.5498)"
           id="g988"><path
             inkscape:connector-curvature="0"
             id="path986"
             style="fill:none;fill-opacity:1;stroke:#ffffff;stroke-width:2.83464575;stroke-linecap:butt;stroke-linejoin:round;stroke-miterlimit:4;stroke-dasharray:none;stroke-opacity:1"
             d="m 0,0 c 0.031,0 0.063,0.004 0.092,0.004 5.855,-6.868 14.17,-11.164 23.404,-11.164 9.234,0 17.551,4.296 23.404,11.164 0.032,0 0.061,-0.004 0.094,-0.004 9.502,0 18.026,4.558 23.901,11.778 -5.077,1.942 -10.356,4.089 -15.663,6.333 -4,-3.5 -9.058,-5.599 -14.568,-5.599 -0.021,0 -0.045,10e-4 -0.066,10e-4 C 36.32,7.494 30.242,4.355 23.496,4.355 c -6.746,0 -12.822,3.139 -17.1,8.158 -0.023,0 -0.044,-10e-4 -0.068,-10e-4 -5.746,0 -11.004,2.281 -15.08,6.056 L -23.834,11.697 C -17.963,4.523 -9.467,0 0,0 Z" /></g><g
           style="fill:none;fill-opacity:1;stroke:#ffffff;stroke-width:2.83464575;stroke-miterlimit:4;stroke-dasharray:none;stroke-opacity:1"
           transform="translate(558.084,433.9375)"
           id="g992"><path
             inkscape:connector-curvature="0"
             id="path990"
             style="fill:none;fill-opacity:1;stroke:#ffffff;stroke-width:2.83464575;stroke-linecap:butt;stroke-linejoin:round;stroke-miterlimit:4;stroke-dasharray:none;stroke-opacity:1"
             d="m 0,0 c 4.277,5.017 10.354,8.155 17.1,8.155 6.746,0 12.824,-3.138 17.101,-8.155 0.022,0 0.045,0.001 0.067,0.001 5.525,0 10.593,-2.11 14.599,-5.626 5.299,2.252 10.571,4.407 15.635,6.354 -5.873,7.223 -14.4,11.782 -23.904,11.782 -0.034,0 -0.063,-0.002 -0.094,-0.002 -5.854,6.868 -14.17,11.164 -23.404,11.164 -9.235,0 -17.549,-4.296 -23.405,-11.164 -0.031,0 -0.06,0.002 -0.093,0.002 -9.465,0 -17.961,-4.523 -23.832,-11.696 l 15.082,-6.871 c 4.076,3.776 9.332,6.057 15.08,6.057 C -0.045,0.001 -0.023,0 0,0 Z" /></g><g
           style="fill:none;fill-opacity:1;stroke:#ffffff;stroke-width:2.83464575;stroke-miterlimit:4;stroke-dasharray:none;stroke-opacity:1"
           transform="translate(563.875,422.4414)"
           id="g996"><path
             inkscape:connector-curvature="0"
             id="path994"
             style="fill:none;fill-opacity:1;stroke:#ffffff;stroke-width:2.83464575;stroke-linecap:butt;stroke-linejoin:round;stroke-miterlimit:4;stroke-dasharray:none;stroke-opacity:1"
             d="m 0,0 c 2.828,3.319 6.848,5.395 11.309,5.395 4.461,0 8.48,-2.076 11.308,-5.395 0.016,0 0.029,0.002 0.045,0.002 1.744,0 3.418,-0.323 4.983,-0.908 5.06,2.288 10.257,4.579 15.431,6.777 -4.006,3.516 -9.074,5.626 -14.599,5.626 -0.022,0 -0.045,-10e-4 -0.067,-10e-4 -4.277,5.017 -10.355,8.155 -17.101,8.155 -6.746,0 -12.823,-3.138 -17.1,-8.155 -0.023,0 -0.045,10e-4 -0.068,10e-4 -5.748,0 -11.004,-2.281 -15.08,-6.057 l 14.873,-6.778 c 1.851,0.86 3.884,1.34 6.021,1.34 C -0.029,0.002 -0.014,0 0,0 Z" /></g><g
           style="fill:none;fill-opacity:1;stroke:#ffffff;stroke-width:2.83464575;stroke-miterlimit:4;stroke-dasharray:none;stroke-opacity:1"
           transform="translate(585.2988,419.9922)"
           id="g1000"><path
             inkscape:connector-curvature="0"
             id="path998"
             style="fill:none;fill-opacity:1;stroke:#ffffff;stroke-width:2.83464575;stroke-linecap:butt;stroke-linejoin:round;stroke-miterlimit:4;stroke-dasharray:none;stroke-opacity:1"
             d="m 0,0 h -0.041 c -2.52,2.956 -6.1,4.805 -10.074,4.805 -3.975,0 -7.555,-1.849 -10.074,-4.805 h -0.04 c -1.261,0 -2.478,-0.191 -3.638,-0.54 l 12.912,-5.884 c 4.185,1.987 8.662,4.082 13.297,6.203 C 1.58,-0.077 0.799,0 0,0 Z" /></g><g
           style="fill:none;fill-opacity:1;stroke:#ffffff;stroke-width:2.83464575;stroke-miterlimit:4;stroke-dasharray:none;stroke-opacity:1"
           transform="translate(558.084,366.0625)"
           id="g1004"><path
             inkscape:connector-curvature="0"
             id="path1002"
             style="fill:none;fill-opacity:1;stroke:#ffffff;stroke-width:2.83464575;stroke-linecap:butt;stroke-linejoin:round;stroke-miterlimit:4;stroke-dasharray:none;stroke-opacity:1"
             d="m 0,0 c 4.277,-5.019 10.354,-8.157 17.1,-8.157 6.746,0 12.824,3.138 17.101,8.157 0.022,0 0.045,-0.001 0.067,-0.001 5.509,0 10.568,2.1 14.568,5.6 -5.193,2.197 -10.41,4.486 -15.486,6.771 -1.539,-0.563 -3.184,-0.876 -4.897,-0.876 -0.015,0 -0.029,0.002 -0.045,0.002 C 25.58,8.177 21.561,6.102 17.1,6.102 c -1.26,0 -2.479,0.181 -3.651,0.494 -2.98,0.794 -5.629,2.518 -7.658,4.9 -0.014,0 -0.029,-0.002 -0.043,-0.002 -2.123,0 -4.144,0.476 -5.986,1.325 -0.012,0.006 -0.026,0.009 -0.037,0.015 L -15.148,6.056 C -11.072,2.28 -5.814,-0.001 -0.068,-0.001 -0.045,-0.001 -0.023,0 0,0 Z" /></g><g
           style="fill:none;fill-opacity:1;stroke:#ffffff;stroke-width:2.83464575;stroke-miterlimit:4;stroke-dasharray:none;stroke-opacity:1"
           transform="translate(565.1094,380.0078)"
           id="g1008"><path
             inkscape:connector-curvature="0"
             id="path1006"
             style="fill:none;fill-opacity:1;stroke:#ffffff;stroke-width:2.83464575;stroke-linecap:butt;stroke-linejoin:round;stroke-miterlimit:4;stroke-dasharray:none;stroke-opacity:1"
             d="m 0,0 c 2.52,-2.956 6.1,-4.807 10.074,-4.807 0.735,0 1.449,0.083 2.153,0.205 3.101,0.537 5.867,2.192 7.921,4.602 h 0.041 c 0.754,0 1.495,0.071 2.217,0.199 C 17.775,2.311 13.303,4.396 9.125,6.373 L -3.678,0.539 C -3.664,0.535 -3.648,0.532 -3.635,0.528 -2.488,0.188 -1.285,0 -0.039,0 Z" /></g><g
           style="fill:none;fill-opacity:1;stroke:#ffffff;stroke-width:2.83464575;stroke-miterlimit:4;stroke-dasharray:none;stroke-opacity:1"
           transform="translate(248.313,353.5498)"
           id="g1012"><path
             inkscape:connector-curvature="0"
             id="path1010"
             style="fill:none;fill-opacity:1;stroke:#ffffff;stroke-width:2.83464575;stroke-linecap:butt;stroke-linejoin:round;stroke-miterlimit:4;stroke-dasharray:none;stroke-opacity:1"
             d="m 0,0 c -0.032,0 -0.062,0.004 -0.094,0.004 -5.853,-6.868 -14.17,-11.164 -23.404,-11.164 -9.233,0 -17.549,4.296 -23.403,11.164 -0.031,0 -0.061,-0.004 -0.093,-0.004 -9.647,0 -18.29,4.69 -24.17,12.102 -1.695,-0.652 -3.364,-1.277 -5.007,-1.879 6.394,-8.701 16.16,-14.28 27.124,-14.28 0.034,0 0.068,0.003 0.102,0.003 6.365,-7.467 15.408,-12.139 25.447,-12.139 10.041,0 19.084,4.672 25.448,12.139 0.035,0 0.069,-0.003 0.103,-0.003 10.519,0 19.947,5.129 26.341,13.231 l -4.829,2.2 C 17.705,4.39 9.323,0 0,0 Z" /></g><g
           style="fill:none;fill-opacity:1;stroke:#ffffff;stroke-width:2.83464575;stroke-miterlimit:4;stroke-dasharray:none;stroke-opacity:1"
           transform="translate(201.3188,446.4482)"
           id="g1016"><path
             inkscape:connector-curvature="0"
             id="path1014"
             style="fill:none;fill-opacity:1;stroke:#ffffff;stroke-width:2.83464575;stroke-linecap:butt;stroke-linejoin:round;stroke-miterlimit:4;stroke-dasharray:none;stroke-opacity:1"
             d="m 0,0 c 0.032,0 0.062,-0.002 0.093,-0.002 5.854,6.868 14.17,11.164 23.403,11.164 9.234,0 17.551,-4.296 23.404,-11.164 0.033,0 0.062,0.002 0.094,0.002 9.324,0 17.706,-4.389 23.566,-11.373 l 4.829,2.2 C 68.995,-1.07 59.567,4.059 49.047,4.059 49.013,4.059 48.979,4.056 48.944,4.056 42.58,11.521 33.537,16.193 23.496,16.193 13.457,16.193 4.413,11.521 -1.951,4.056 c -0.034,0 -0.068,0.003 -0.102,0.003 -10.973,0 -20.748,-5.589 -27.142,-14.303 1.643,-0.601 3.313,-1.226 5.008,-1.876 C -18.307,-4.697 -9.655,0 0,0 Z" /></g><g
           style="fill:none;fill-opacity:1;stroke:#ffffff;stroke-width:2.83464575;stroke-miterlimit:4;stroke-dasharray:none;stroke-opacity:1"
           transform="translate(248.313,446.4482)"
           id="g1020"><path
             inkscape:connector-curvature="0"
             id="path1018"
             style="fill:none;fill-opacity:1;stroke:#ffffff;stroke-width:2.83464575;stroke-linecap:butt;stroke-linejoin:round;stroke-miterlimit:4;stroke-dasharray:none;stroke-opacity:1"
             d="m 0,0 c -0.032,0 -0.062,-0.002 -0.094,-0.002 -5.853,6.868 -14.17,11.164 -23.404,11.164 -9.233,0 -17.549,-4.296 -23.403,-11.164 -0.032,0 -0.061,0.002 -0.093,0.002 -9.655,0 -18.307,-4.697 -24.187,-12.12 5.052,-1.938 10.301,-4.077 15.575,-6.313 4.055,3.698 9.26,5.923 14.94,5.923 0.023,0 0.046,-10e-4 0.068,-10e-4 4.278,5.017 10.354,8.156 17.1,8.156 6.748,0 12.824,-3.139 17.102,-8.156 0.022,0 0.044,10e-4 0.067,10e-4 5.596,0 10.728,-2.162 14.757,-5.761 l 15.138,6.898 C 17.706,-4.389 9.324,0 0,0 Z" /></g><g
           style="fill:none;fill-opacity:1;stroke:#ffffff;stroke-width:2.83464575;stroke-miterlimit:4;stroke-dasharray:none;stroke-opacity:1"
           transform="translate(241.9165,366.0625)"
           id="g1024"><path
             inkscape:connector-curvature="0"
             id="path1022"
             style="fill:none;fill-opacity:1;stroke:#ffffff;stroke-width:2.83464575;stroke-linecap:butt;stroke-linejoin:round;stroke-miterlimit:4;stroke-dasharray:none;stroke-opacity:1"
             d="m 0,0 c -4.277,-5.019 -10.354,-8.157 -17.102,-8.157 -6.746,0 -12.822,3.138 -17.098,8.157 -0.024,0 -0.046,-0.001 -0.07,-0.001 -5.674,0 -10.875,2.221 -14.928,5.912 -5.275,-2.238 -10.524,-4.383 -15.57,-6.322 5.88,-7.411 14.524,-12.102 24.17,-12.102 0.033,0 0.063,0.004 0.093,0.004 5.855,-6.868 14.17,-11.164 23.403,-11.164 9.235,0 17.551,4.296 23.405,11.164 0.032,0 0.061,-0.004 0.093,-0.004 9.324,0 17.705,4.39 23.565,11.374 L 14.823,5.76 C 10.795,2.161 5.663,-0.001 0.067,-0.001 0.045,-0.001 0.022,0 0,0 Z" /></g><g
           style="fill:none;fill-opacity:1;stroke:#ffffff;stroke-width:2.83464575;stroke-miterlimit:4;stroke-dasharray:none;stroke-opacity:1"
           transform="translate(241.9165,433.9375)"
           id="g1028"><path
             inkscape:connector-curvature="0"
             id="path1026"
             style="fill:none;fill-opacity:1;stroke:#ffffff;stroke-width:2.83464575;stroke-linecap:butt;stroke-linejoin:round;stroke-miterlimit:4;stroke-dasharray:none;stroke-opacity:1"
             d="m 0,0 c -4.277,5.017 -10.354,8.155 -17.102,8.155 -6.746,0 -12.822,-3.138 -17.099,-8.155 -0.023,0 -0.045,0.001 -0.069,0.001 -5.679,0 -10.884,-2.226 -14.94,-5.923 5.119,-2.17 10.258,-4.428 15.258,-6.682 1.709,0.714 3.561,1.11 5.498,1.11 0.015,0 0.03,-0.002 0.045,-0.002 2.828,3.319 6.846,5.394 11.307,5.394 4.463,0 8.481,-2.075 11.309,-5.394 0.016,0 0.03,0.002 0.045,0.002 1.948,0 3.81,-0.4 5.526,-1.122 l 15.046,6.855 C 10.796,-2.161 5.663,0.001 0.067,0.001 0.045,0.001 0.022,0 0,0 Z" /></g><g
           style="fill:none;fill-opacity:1;stroke:#ffffff;stroke-width:2.83464575;stroke-miterlimit:4;stroke-dasharray:none;stroke-opacity:1"
           transform="translate(236.1235,377.5586)"
           id="g1032"><path
             inkscape:connector-curvature="0"
             id="path1030"
             style="fill:none;fill-opacity:1;stroke:#ffffff;stroke-width:2.83464575;stroke-linecap:butt;stroke-linejoin:round;stroke-miterlimit:4;stroke-dasharray:none;stroke-opacity:1"
             d="m 0,0 c -2.828,-3.319 -6.846,-5.395 -11.309,-5.395 -4.461,0 -8.479,2.076 -11.307,5.395 -0.014,0 -0.03,-0.002 -0.044,-0.002 -1.935,0 -3.783,0.394 -5.49,1.106 -5.002,-2.256 -10.139,-4.516 -15.255,-6.689 4.053,-3.691 9.254,-5.912 14.928,-5.912 0.024,0 0.046,10e-4 0.07,10e-4 4.276,-5.019 10.352,-8.157 17.098,-8.157 6.748,0 12.825,3.138 17.102,8.157 0.022,0 0.045,-10e-4 0.067,-10e-4 5.596,0 10.728,2.162 14.756,5.761 L 5.57,1.119 C 3.854,0.397 1.992,-0.002 0.045,-0.002 0.03,-0.002 0.016,0 0,0 Z" /></g><g
           style="fill:none;fill-opacity:1;stroke:#ffffff;stroke-width:2.83464575;stroke-miterlimit:4;stroke-dasharray:none;stroke-opacity:1"
           transform="translate(234.8901,419.9922)"
           id="g1036"><path
             inkscape:connector-curvature="0"
             id="path1034"
             style="fill:none;fill-opacity:1;stroke:#ffffff;stroke-width:2.83464575;stroke-linecap:butt;stroke-linejoin:round;stroke-miterlimit:4;stroke-dasharray:none;stroke-opacity:1"
             d="m 0,0 c -2.521,2.956 -6.101,4.805 -10.075,4.805 -3.974,0 -7.553,-1.849 -10.073,-4.805 h -0.04 c -1.026,0 -2.022,-0.128 -2.984,-0.361 4.528,-2.066 8.905,-4.107 13.001,-6.045 L 3.071,-0.372 C 2.096,-0.132 1.082,0 0.04,0 Z" /></g><g
           style="fill:none;fill-opacity:1;stroke:#ffffff;stroke-width:2.83464575;stroke-miterlimit:4;stroke-dasharray:none;stroke-opacity:1"
           transform="translate(214.7017,380.0078)"
           id="g1040"><path
             inkscape:connector-curvature="0"
             id="path1038"
             style="fill:none;fill-opacity:1;stroke:#ffffff;stroke-width:2.83464575;stroke-linecap:butt;stroke-linejoin:round;stroke-miterlimit:4;stroke-dasharray:none;stroke-opacity:1"
             d="m 0,0 h 0.04 c 2.521,-2.956 6.1,-4.807 10.073,-4.807 3.975,0 7.555,1.851 10.075,4.807 h 0.041 c 1.042,0 2.053,0.132 3.03,0.371 L 10.019,6.404 C 5.925,4.466 1.55,2.425 -2.975,0.359 -2.017,0.127 -1.022,0 0,0 Z" /></g><g
           style="fill:none;fill-opacity:1;stroke:#ffffff;stroke-width:2.83464575;stroke-miterlimit:4;stroke-dasharray:none;stroke-opacity:1"
           transform="translate(150.7085,408.5283)"
           id="g1044"><path
             inkscape:connector-curvature="0"
             id="path1042"
             style="fill:none;fill-opacity:1;stroke:#ffffff;stroke-width:2.83464575;stroke-linecap:butt;stroke-linejoin:round;stroke-miterlimit:4;stroke-dasharray:none;stroke-opacity:1"
             d="m 0,0 c -3.088,-2.073 -5.045,-5.157 -5.028,-8.598 0.017,-3.411 1.972,-6.45 5.035,-8.493 -0.571,2.754 -0.876,5.617 -0.876,8.562 0,2.932 0.303,5.786 0.869,8.529 z" /></g><g
           style="fill:none;fill-opacity:1;stroke:#ffffff;stroke-width:2.83464575;stroke-miterlimit:4;stroke-dasharray:none;stroke-opacity:1"
           transform="translate(157.4771,411.0371)"
           id="g1048"><path
             inkscape:connector-curvature="0"
             id="path1046"
             style="fill:none;fill-opacity:1;stroke:#ffffff;stroke-width:2.83464575;stroke-linecap:butt;stroke-linejoin:round;stroke-miterlimit:4;stroke-dasharray:none;stroke-opacity:1"
             d="m 0,0 c -2.554,-0.356 -4.875,-1.237 -6.769,-2.509 -0.566,-2.743 -0.869,-5.596 -0.869,-8.529 0,-2.944 0.305,-5.808 0.876,-8.562 1.895,-1.263 4.213,-2.139 6.766,-2.485 -1.042,3.477 -1.618,7.186 -1.618,11.047 0,3.858 0.575,7.564 1.614,11.038 z" /></g><g
           style="fill:none;fill-opacity:1;stroke:#ffffff;stroke-width:2.83464575;stroke-miterlimit:4;stroke-dasharray:none;stroke-opacity:1"
           transform="translate(175.4175,407.3682)"
           id="g1052"><path
             inkscape:connector-curvature="0"
             id="path1050"
             style="fill:none;fill-opacity:1;stroke:#ffffff;stroke-width:2.83464575;stroke-linecap:butt;stroke-linejoin:round;stroke-miterlimit:4;stroke-dasharray:none;stroke-opacity:1"
             d="m 0,0 c -6.281,2.119 -12.419,3.867 -15.533,3.853 -0.822,-0.005 -1.623,-0.076 -2.407,-0.184 -1.039,-3.474 -1.615,-7.18 -1.615,-11.038 0,-3.861 0.576,-7.57 1.618,-11.047 0.818,-0.11 1.655,-0.177 2.514,-0.173 3.101,0.016 9.183,1.765 15.416,3.878 -0.629,2.328 -0.976,4.789 -0.976,7.342 0,2.562 0.35,5.033 0.983,7.369 z" /></g><g
           style="fill:none;fill-opacity:1;stroke:#ffffff;stroke-width:2.83464575;stroke-miterlimit:4;stroke-dasharray:none;stroke-opacity:1"
           transform="translate(175.4175,407.3682)"
           id="g1056"><path
             inkscape:connector-curvature="0"
             id="path1054"
             style="fill:none;fill-opacity:1;stroke:#ffffff;stroke-width:2.83464575;stroke-linecap:butt;stroke-linejoin:round;stroke-miterlimit:4;stroke-dasharray:none;stroke-opacity:1"
             d="m 0,0 c -0.633,-2.336 -0.983,-4.807 -0.983,-7.369 0,-2.553 0.347,-5.014 0.976,-7.342 6.128,2.077 12.403,4.505 16.137,5.99 2.111,0.839 3.41,1.377 3.413,1.378 v 0.002 c 0,0 -1.298,0.536 -3.407,1.373 C 12.404,-4.488 6.134,-2.068 0,0 Z" /></g><g
           style="fill:none;fill-opacity:1;stroke:#ffffff;stroke-width:2.83464575;stroke-miterlimit:4;stroke-dasharray:none;stroke-opacity:1"
           transform="translate(552.8457,386.5908)"
           id="g1060"><path
             inkscape:connector-curvature="0"
             id="path1058"
             style="fill:none;fill-opacity:1;stroke:#ffffff;stroke-width:2.83464575;stroke-linecap:butt;stroke-linejoin:round;stroke-miterlimit:4;stroke-dasharray:none;stroke-opacity:1"
             d="m 0,0 -3.113,-1.419 -14.496,-6.604 -15.698,-7.154 -5.099,-2.323 -114.767,-52.295 -0.161,-0.073 -0.159,0.073 -114.147,52.013 -5.091,2.321 -15.734,7.169 -14.535,6.623 -3.12,1.422 -11.361,5.177 c -2.271,-1.106 -4.712,-2.283 -7.288,-3.513 l 13.471,-6.139 3.2,-1.458 14.125,-6.435 14.797,-6.743 5.222,-2.379 120.448,-54.885 0.172,-0.079 0.174,0.079 120.953,55.114 5.258,2.396 14.963,6.818 14.029,6.393 3.152,1.436 12.836,5.849 c -2.578,1.23 -5.019,2.409 -7.289,3.511 z" /></g><g
           style="fill:none;fill-opacity:1;stroke:#ffffff;stroke-width:2.83464575;stroke-miterlimit:4;stroke-dasharray:none;stroke-opacity:1"
           transform="translate(249.8452,384.9219)"
           id="g1064"><path
             inkscape:connector-curvature="0"
             id="path1062"
             style="fill:none;fill-opacity:1;stroke:#ffffff;stroke-width:2.83464575;stroke-linecap:butt;stroke-linejoin:round;stroke-miterlimit:4;stroke-dasharray:none;stroke-opacity:1"
             d="m 0,0 14.535,-6.623 15.734,-7.169 5.092,-2.321 114.146,-52.013 0.16,-0.073 0.161,0.073 114.766,52.295 5.1,2.323 15.697,7.154 14.496,6.604 3.113,1.419 10.743,4.894 c -5.627,2.734 -10.198,5.009 -13.176,6.506 l -4.41,-2.008 -3.295,-1.501 -15.02,-6.846 -16.006,-7.292 -5.158,-2.351 -106.875,-48.7 -0.136,-0.062 -0.135,0.062 L 43.41,-7.272 38.267,-4.929 22.292,2.352 7.321,9.173 4.053,10.661 -1.309,13.104 C -4.303,11.6 -8.869,9.325 -14.48,6.599 L -3.119,1.422 Z" /></g><g
           style="fill:none;fill-opacity:1;stroke:#ffffff;stroke-width:2.83464575;stroke-miterlimit:4;stroke-dasharray:none;stroke-opacity:1"
           transform="translate(526.3574,409.2197)"
           id="g1068"><path
             inkscape:connector-curvature="0"
             id="path1066"
             style="fill:none;fill-opacity:1;stroke:#ffffff;stroke-width:2.83464575;stroke-linecap:butt;stroke-linejoin:round;stroke-miterlimit:4;stroke-dasharray:none;stroke-opacity:1"
             d="m 0,0 -16.309,7.433 c -2.423,-4.963 -3.818,-10.624 -3.818,-16.654 0,-6.028 1.395,-11.689 3.818,-16.653 L 0,-18.441 c -0.998,2.864 -1.555,5.969 -1.555,9.22 0,3.252 0.557,6.358 1.555,9.221 z" /></g><g
           style="fill:none;fill-opacity:1;stroke:#ffffff;stroke-width:2.83464575;stroke-miterlimit:4;stroke-dasharray:none;stroke-opacity:1"
           transform="translate(541.9941,402.0947)"
           id="g1072"><path
             inkscape:connector-curvature="0"
             id="path1070"
             style="fill:none;fill-opacity:1;stroke:#ffffff;stroke-width:2.83464575;stroke-linecap:butt;stroke-linejoin:round;stroke-miterlimit:4;stroke-dasharray:none;stroke-opacity:1"
             d="m 0,0 -15.637,7.125 c -0.998,-2.863 -1.554,-5.969 -1.554,-9.221 0,-3.251 0.556,-6.356 1.554,-9.22 L 0,-4.191 c -0.076,0.687 -0.127,1.385 -0.127,2.095 0,0.711 0.051,1.408 0.127,2.096 z" /></g><g
           style="fill:none;fill-opacity:1;stroke:#ffffff;stroke-width:2.83464575;stroke-miterlimit:4;stroke-dasharray:none;stroke-opacity:1"
           transform="translate(541.9941,402.0947)"
           id="g1076"><path
             inkscape:connector-curvature="0"
             id="path1074"
             style="fill:none;fill-opacity:1;stroke:#ffffff;stroke-width:2.83464575;stroke-linecap:butt;stroke-linejoin:round;stroke-miterlimit:4;stroke-dasharray:none;stroke-opacity:1"
             d="m 0,0 c -0.076,-0.688 -0.127,-1.385 -0.127,-2.096 0,-0.71 0.051,-1.408 0.127,-2.095 l 3.527,1.607 1.073,0.488 -1.073,0.49 z" /></g><g
           style="fill:none;fill-opacity:1;stroke:#ffffff;stroke-width:2.83464575;stroke-miterlimit:4;stroke-dasharray:none;stroke-opacity:1"
           transform="translate(273.5146,409.6045)"
           id="g1080"><path
             inkscape:connector-curvature="0"
             id="path1078"
             style="fill:none;fill-opacity:1;stroke:#ffffff;stroke-width:2.83464575;stroke-linecap:butt;stroke-linejoin:round;stroke-miterlimit:4;stroke-dasharray:none;stroke-opacity:1"
             d="m 0,0 c 1.085,-2.969 1.683,-6.209 1.683,-9.605 0,-3.397 -0.598,-6.637 -1.683,-9.606 l 16.261,-7.41 c 2.535,5.047 3.993,10.84 3.993,17.016 0,6.176 -1.458,11.968 -3.993,17.016 z" /></g><g
           style="fill:none;fill-opacity:1;stroke:#ffffff;stroke-width:2.83464575;stroke-miterlimit:4;stroke-dasharray:none;stroke-opacity:1"
           transform="translate(273.5146,409.6045)"
           id="g1084"><path
             inkscape:connector-curvature="0"
             id="path1082"
             style="fill:none;fill-opacity:1;stroke:#ffffff;stroke-width:2.83464575;stroke-linecap:butt;stroke-linejoin:round;stroke-miterlimit:4;stroke-dasharray:none;stroke-opacity:1"
             d="m 0,0 -15.554,-7.086 c 0.111,-0.822 0.172,-1.663 0.172,-2.519 0,-0.857 -0.061,-1.697 -0.172,-2.518 L 0,-19.211 c 1.085,2.969 1.683,6.209 1.683,9.606 C 1.683,-6.209 1.085,-2.969 0,0 Z" /></g><g
           style="fill:none;fill-opacity:1;stroke:#ffffff;stroke-width:2.83464575;stroke-miterlimit:4;stroke-dasharray:none;stroke-opacity:1"
           transform="translate(257.9604,402.5186)"
           id="g1088"><path
             inkscape:connector-curvature="0"
             id="path1086"
             style="fill:none;fill-opacity:1;stroke:#ffffff;stroke-width:2.83464575;stroke-linecap:butt;stroke-linejoin:round;stroke-miterlimit:4;stroke-dasharray:none;stroke-opacity:1"
             d="M 0,0 -3.497,-1.594 -5.527,-2.52 -3.497,-3.444 0,-5.037 C 0.111,-4.216 0.172,-3.376 0.172,-2.52 0.172,-1.663 0.111,-0.822 0,0 Z" /></g><g
           style="fill:none;fill-opacity:1;stroke:#ffffff;stroke-width:2.83464575;stroke-miterlimit:4;stroke-dasharray:none;stroke-opacity:1"
           transform="translate(545.5215,399.5107)"
           id="g1092"><path
             inkscape:connector-curvature="0"
             id="path1090"
             style="fill:none;fill-opacity:1;stroke:#ffffff;stroke-width:2.83464575;stroke-linecap:butt;stroke-linejoin:round;stroke-miterlimit:4;stroke-dasharray:none;stroke-opacity:1"
             d="m 0,0 -3.527,-1.607 -15.637,-7.125 -16.309,-7.433 c -2.423,4.964 -3.818,10.625 -3.818,16.653 0,6.03 1.395,11.691 3.818,16.654 L -19.164,9.709 -3.527,2.584 0,0.978 1.072,0.488 Z m -145.88,-66.473 -0.13,-0.059 -0.128,0.059 -104.377,47.563 c 3.04,5.689 4.786,12.318 4.786,19.398 0,7.08 -1.746,13.709 -4.786,19.401 l 104.378,47.562 0.127,0.058 0.13,-0.06 105.165,-47.92 c -2.924,-5.61 -4.599,-12.108 -4.599,-19.041 0,-6.931 1.675,-13.43 4.601,-19.04 z m -109.866,49.946 -16.261,7.41 -15.554,7.088 -3.497,1.592 -2.03,0.925 2.03,0.926 3.497,1.594 15.554,7.086 16.261,7.411 c 2.535,-5.048 3.993,-10.84 3.993,-17.017 0,-6.176 -1.458,-11.968 -3.993,-17.015 z M 110.418,44.331 C 104.184,44.301 93.91,41.372 82.094,37.044 80.445,36.44 78.768,35.81 77.064,35.156 72,33.209 66.729,31.054 61.43,28.802 56.256,26.604 51.059,24.313 45.998,22.024 44.695,21.436 43.4,20.848 42.119,20.261 37.484,18.14 33.008,16.045 28.822,14.058 l 4.237,-1.931 c 4.248,2 8.861,4.134 13.654,6.298 1.053,0.474 2.111,0.95 3.178,1.426 4.664,2.083 9.459,4.17 14.236,6.173 5.449,2.287 10.871,4.459 16.037,6.389 1.957,0.73 3.873,1.423 5.744,2.074 9.756,3.401 18.176,5.643 23.487,5.669 22.437,0.108 40.71,-17.562 40.82,-39.47 0.105,-21.907 -17.996,-39.755 -40.432,-39.864 -5.367,-0.026 -13.935,2.231 -23.859,5.677 -1.873,0.65 -3.795,1.343 -5.752,2.071 -5.176,1.925 -10.602,4.093 -16.055,6.372 -4.785,2.001 -9.584,4.085 -14.252,6.164 -1.07,0.476 -2.131,0.952 -3.183,1.426 -4.803,2.163 -9.422,4.295 -13.676,6.293 -1.149,0.541 -2.274,1.072 -3.367,1.591 -2.629,1.246 -5.078,2.421 -7.313,3.5 C 14.803,-2.446 9.791,0.085 9.137,0.415 L 5.041,2.428 0.48,4.506 l -3.294,1.502 -15.02,6.844 -16.006,7.293 -5.158,2.35 -106.875,48.699 -0.137,0.063 -0.134,-0.061 -106.123,-48.357 -5.143,-2.344 -15.976,-7.28 -14.97,-6.82 -3.269,-1.49 -5.359,-2.442 -4.296,-1.959 c 0,0 -0.019,-0.009 -0.032,-0.016 -0.356,-0.181 -5.423,-2.753 -13.167,-6.509 -2.23,-1.081 -4.676,-2.257 -7.3,-3.505 -1.094,-0.521 -2.215,-1.051 -3.364,-1.594 -4.069,-1.918 -8.475,-3.96 -13.051,-6.032 -1.036,-0.469 -2.082,-0.94 -3.135,-1.411 -4.622,-2.07 -9.379,-4.147 -14.123,-6.144 -5.516,-2.322 -11.009,-4.532 -16.241,-6.488 -1.94,-0.725 -3.843,-1.415 -5.698,-2.063 -9.698,-3.388 -18.073,-5.621 -23.358,-5.647 -22.282,-0.109 -40.431,17.439 -40.539,39.198 -0.105,21.757 17.872,39.482 40.154,39.591 5.341,0.025 13.859,-2.225 23.724,-5.659 1.856,-0.646 3.762,-1.337 5.702,-2.06 5.241,-1.954 10.738,-4.16 16.257,-6.478 4.749,-1.995 9.509,-4.07 14.133,-6.136 1.054,-0.472 2.101,-0.943 3.139,-1.412 4.582,-2.072 8.99,-4.113 13.062,-6.03 l 4.315,1.966 c -4.096,1.939 -8.473,3.98 -13.001,6.045 -1.24,0.567 -2.492,1.134 -3.754,1.702 -5,2.255 -10.139,4.513 -15.258,6.683 -5.273,2.235 -10.522,4.375 -15.574,6.312 -1.695,0.651 -3.365,1.276 -5.009,1.876 -12.028,4.398 -22.502,7.369 -28.794,7.338 -24.047,-0.117 -43.446,-19.707 -43.329,-43.754 0.118,-24.048 19.708,-43.447 43.756,-43.33 6.233,0.032 16.54,2.976 28.386,7.315 1.642,0.602 3.311,1.227 5.006,1.879 5.046,1.939 10.295,4.084 15.57,6.322 5.116,2.173 10.253,4.433 15.255,6.688 1.26,0.57 2.513,1.138 3.754,1.705 4.524,2.066 8.899,4.107 12.993,6.045 1.141,0.541 2.261,1.075 3.356,1.596 2.576,1.231 5.017,2.407 7.288,3.513 5.612,2.726 10.178,5.001 13.172,6.506 l 5.361,-2.444 3.269,-1.488 14.97,-6.821 15.976,-7.281 5.142,-2.343 106.122,-48.357 0.135,-0.062 0.137,0.062 106.875,48.7 5.158,2.351 16.006,7.292 15.02,6.846 3.294,1.501 4.411,2.008 c 2.978,-1.497 7.548,-3.772 13.175,-6.505 2.27,-1.102 4.711,-2.281 7.289,-3.511 1.094,-0.522 2.217,-1.054 3.358,-1.594 4.178,-1.977 8.65,-4.062 13.281,-6.174 1.293,-0.59 2.602,-1.181 3.918,-1.774 5.076,-2.285 10.293,-4.574 15.486,-6.772 5.307,-2.244 10.586,-4.391 15.663,-6.333 1.705,-0.652 3.382,-1.278 5.035,-1.88 12.008,-4.374 22.455,-7.322 28.752,-7.291 24.213,0.118 43.748,19.842 43.631,44.057 -0.122,24.215 -19.846,43.745 -44.061,43.628 z" /></g><g
           style="fill:none;fill-opacity:1;stroke:#ffffff;stroke-width:2.83464575;stroke-miterlimit:4;stroke-dasharray:none;stroke-opacity:1"
           transform="translate(649.3359,391.6982)"
           id="g1096"><path
             inkscape:connector-curvature="0"
             id="path1094"
             style="fill:none;fill-opacity:1;stroke:#ffffff;stroke-width:2.83464575;stroke-linecap:butt;stroke-linejoin:round;stroke-miterlimit:4;stroke-dasharray:none;stroke-opacity:1"
             d="M 0,0 C 2.875,2.081 4.684,5.06 4.668,8.371 4.65,11.654 2.844,14.594 -0.01,16.644 0.533,13.958 0.824,11.167 0.824,8.301 0.824,5.449 0.535,2.674 0,0 Z" /></g><g
           style="fill:none;fill-opacity:1;stroke:#ffffff;stroke-width:2.83464575;stroke-miterlimit:4;stroke-dasharray:none;stroke-opacity:1"
           transform="translate(642.5137,388.9346)"
           id="g1100"><path
             inkscape:connector-curvature="0"
             id="path1098"
             style="fill:none;fill-opacity:1;stroke:#ffffff;stroke-width:2.83464575;stroke-linecap:butt;stroke-linejoin:round;stroke-miterlimit:4;stroke-dasharray:none;stroke-opacity:1"
             d="m 0,0 c 2.602,0.421 4.938,1.401 6.822,2.764 0.535,2.674 0.824,5.449 0.824,8.3 0,2.867 -0.291,5.658 -0.833,8.343 C 4.93,20.762 2.594,21.732 -0.006,22.142 1.043,18.656 1.623,14.938 1.623,11.064 1.623,7.197 1.045,3.482 0,0 Z" /></g><g
           style="fill:none;fill-opacity:1;stroke:#ffffff;stroke-width:2.83464575;stroke-miterlimit:4;stroke-dasharray:none;stroke-opacity:1"
           transform="translate(624.5215,392.3896)"
           id="g1104"><path
             inkscape:connector-curvature="0"
             id="path1102"
             style="fill:none;fill-opacity:1;stroke:#ffffff;stroke-width:2.83464575;stroke-linecap:butt;stroke-linejoin:round;stroke-miterlimit:4;stroke-dasharray:none;stroke-opacity:1"
             d="m 0,0 c 6.18,-2.046 12.133,-3.703 15.178,-3.688 0.965,0.004 1.904,0.086 2.814,0.233 1.045,3.482 1.623,7.197 1.623,11.064 0,3.873 -0.58,7.592 -1.629,11.078 -0.941,0.149 -1.918,0.226 -2.918,0.22 C 12.037,18.892 6.139,17.23 0.008,15.184 0.678,12.788 1.043,10.246 1.043,7.609 1.043,4.959 0.674,2.405 0,0 Z" /></g><g
           style="fill:none;fill-opacity:1;stroke:#ffffff;stroke-width:2.83464575;stroke-miterlimit:4;stroke-dasharray:none;stroke-opacity:1"
           transform="translate(608.4102,398.251)"
           id="g1108"><path
             inkscape:connector-curvature="0"
             id="path1106"
             style="fill:none;fill-opacity:1;stroke:#ffffff;stroke-width:2.83464575;stroke-linecap:butt;stroke-linejoin:round;stroke-miterlimit:4;stroke-dasharray:none;stroke-opacity:1"
             d="m 0,0 c 3.973,-1.55 10.143,-3.885 16.111,-5.861 0.674,2.405 1.043,4.959 1.043,7.609 0,2.637 -0.365,5.179 -1.035,7.574 C 10.158,7.332 3.984,4.98 0.008,3.422 -1.586,2.797 -2.826,2.3 -3.555,2.005 -4.029,1.813 -4.295,1.704 -4.295,1.704 c 0,0 0.264,-0.106 0.736,-0.297 C -2.83,1.114 -1.592,0.62 0,0 Z" /></g><g
           style="fill:none;fill-opacity:1;stroke:#ffffff;stroke-width:2.83464575;stroke-miterlimit:4;stroke-dasharray:none;stroke-opacity:1"
           transform="translate(194.6489,410.2822)"
           id="g1112"><path
             inkscape:connector-curvature="0"
             id="path1110"
             style="fill:none;fill-opacity:1;stroke:#ffffff;stroke-width:2.83464575;stroke-linecap:butt;stroke-linejoin:round;stroke-miterlimit:4;stroke-dasharray:none;stroke-opacity:1"
             d="m 0,0 c -4.721,2.077 -9.787,4.229 -14.77,6.214 -5.924,2.358 -11.728,4.474 -16.681,5.93 -2.095,0.615 -4.035,1.109 -5.77,1.457 -1.836,0.366 -3.444,0.569 -4.751,0.563 -14.282,-0.07 -25.806,-11.071 -25.741,-24.573 0.067,-13.501 11.698,-24.387 25.981,-24.32 1.253,0.007 2.78,0.202 4.52,0.55 1.729,0.346 3.67,0.845 5.766,1.464 4.937,1.456 10.738,3.581 16.666,5.95 4.976,1.989 10.04,4.147 14.759,6.23 1.059,0.467 2.097,0.929 3.116,1.385 3.002,1.344 5.814,2.632 8.303,3.789 1.209,0.562 2.34,1.09 3.384,1.583 3.874,1.824 12.678,5.934 12.678,5.934 l 8.964,4.086 4.293,1.955 11.36,5.177 3.118,1.421 14.536,6.623 15.734,7.17 5.092,2.32 114.148,52.014 0.158,0.073 0.161,-0.073 114.765,-52.296 5.101,-2.324 15.697,-7.154 14.495,-6.603 3.113,-1.419 10.873,-4.955 4.191,-1.909 6.465,-2.947 7.899,-3.598 c 0,0 3.386,-1.622 7.347,-3.485 1.041,-0.488 2.178,-1.019 3.385,-1.582 2.687,-1.245 5.758,-2.647 9.041,-4.112 1.021,-0.455 2.061,-0.915 3.119,-1.38 4.733,-2.076 9.789,-4.221 14.756,-6.192 5.947,-2.361 11.756,-4.466 16.703,-5.904 2.106,-0.613 4.055,-1.105 5.791,-1.442 1.75,-0.34 3.285,-0.523 4.543,-0.517 14.381,0.07 25.986,11.146 25.918,24.742 -0.066,13.594 -11.777,24.556 -26.158,24.488 -1.203,-0.006 -2.66,-0.188 -4.311,-0.509 -1.73,-0.336 -3.679,-0.828 -5.789,-1.444 -4.931,-1.442 -10.736,-3.554 -16.687,-5.925 -4.959,-1.975 -10.014,-4.126 -14.746,-6.208 -1.057,-0.466 -2.096,-0.927 -3.116,-1.384 -3.269,-1.461 -6.328,-2.861 -9.007,-4.106 l 7.593,-3.458 c 1.104,0.474 2.42,1.037 3.889,1.653 1.049,0.442 2.178,0.911 3.365,1.401 4.655,1.917 10.223,4.123 15.551,6.018 7.023,2.5 13.623,4.455 17.121,4.473 0.156,0 0.307,-0.016 0.461,-0.018 2.408,-0.042 4.697,-0.493 6.777,-1.283 6.159,-2.338 10.471,-7.595 10.502,-13.74 0.03,-6.189 -4.291,-11.524 -10.496,-13.897 -2.08,-0.795 -4.371,-1.253 -6.785,-1.301 -0.103,-0.001 -0.205,-0.013 -0.31,-0.014 -3.518,-0.018 -10.188,1.939 -17.282,4.446 -5.334,1.887 -10.9,4.082 -15.552,5.989 -1.186,0.488 -2.317,0.955 -3.364,1.394 -1.5,0.629 -2.84,1.198 -3.959,1.679 -1.875,0.804 -3.14,1.363 -3.509,1.525 -0.075,0.033 -0.122,0.055 -0.122,0.055 l -7.263,3.495 -0.301,0.137 -9.445,4.304 -4.717,2.151 -4.221,1.922 -12.953,5.903 -3.154,1.436 -14.028,6.394 -14.964,6.818 -5.256,2.395 -120.953,55.113 -0.174,0.081 -0.172,-0.079 L 84.245,24.864 79.022,22.484 64.225,15.742 50.1,9.306 46.899,7.847 33.428,1.708 29.121,-0.254 25.909,-1.718 14.842,-6.76 13.157,-7.528 7.112,-10.283 c 0,0 -1.316,-0.596 -3.477,-1.54 -0.845,-0.369 -1.823,-0.794 -2.905,-1.257 -1.04,-0.447 -2.176,-0.931 -3.388,-1.44 -4.558,-1.915 -10.159,-4.181 -15.562,-6.142 -7.096,-2.576 -13.846,-4.625 -17.419,-4.643 -0.029,0 -0.058,0.004 -0.088,0.004 -2.38,-0.002 -4.652,0.401 -6.722,1.136 -6.321,2.245 -10.777,7.567 -10.807,13.798 -0.031,6.27 4.434,11.66 10.798,13.942 2.056,0.737 4.307,1.154 6.671,1.165 0.019,0 0.042,-0.002 0.061,-0.002 3.607,-0.005 10.387,-2.052 17.509,-4.635 5.405,-1.961 11.005,-4.227 15.561,-6.142 1.211,-0.51 2.347,-0.993 3.387,-1.44 1.082,-0.465 2.061,-0.891 2.906,-1.261 l 7.816,3.561 C 8.957,-4.021 6.134,-2.731 3.116,-1.383 2.098,-0.928 1.059,-0.466 0,0 Z" /></g><g
           style="fill:none;fill-opacity:1;stroke:#ffffff;stroke-width:2.83464575;stroke-miterlimit:4;stroke-dasharray:none;stroke-opacity:1"
           transform="translate(204.2036,419.0615)"
           id="g1116"><path
             inkscape:connector-curvature="0"
             id="path1114"
             style="fill:none;fill-opacity:1;stroke:#ffffff;stroke-width:2.83464575;stroke-linecap:butt;stroke-linejoin:round;stroke-miterlimit:4;stroke-dasharray:none;stroke-opacity:1"
             d="m 0,0 c -4.624,2.066 -9.384,4.142 -14.133,6.136 -5.519,2.318 -11.016,4.524 -16.258,6.478 -1.939,0.723 -3.845,1.414 -5.701,2.06 -9.865,3.434 -18.384,5.684 -23.724,5.659 -22.282,-0.108 -40.259,-17.834 -40.154,-39.591 0.108,-21.759 18.257,-39.306 40.539,-39.198 5.285,0.026 13.66,2.26 23.358,5.647 1.855,0.648 3.758,1.338 5.698,2.063 5.231,1.956 10.725,4.166 16.241,6.488 4.744,1.997 9.501,4.074 14.123,6.144 1.053,0.471 2.099,0.942 3.135,1.411 4.576,2.072 8.981,4.114 13.051,6.032 1.149,0.543 2.27,1.073 3.364,1.594 2.624,1.248 5.069,2.425 7.3,3.505 7.744,3.757 12.81,6.328 13.167,6.509 h -0.002 l 0.034,0.016 4.296,1.959 5.359,2.442 3.269,1.49 14.97,6.82 15.976,7.28 5.143,2.344 106.123,48.358 0.134,0.06 0.137,-0.062 106.875,-48.7 5.158,-2.35 16.006,-7.293 15.019,-6.844 3.295,-1.502 4.561,-2.078 4.096,-2.013 c 0.654,-0.33 5.666,-2.861 13.189,-6.499 2.234,-1.079 4.684,-2.254 7.313,-3.5 1.093,-0.518 2.218,-1.05 3.367,-1.591 4.254,-1.998 8.873,-4.129 13.676,-6.293 1.052,-0.474 2.113,-0.95 3.183,-1.425 4.668,-2.079 9.467,-4.163 14.252,-6.164 5.453,-2.28 10.879,-4.448 16.055,-6.372 1.957,-0.729 3.879,-1.421 5.752,-2.072 9.924,-3.446 18.492,-5.703 23.859,-5.677 22.436,0.109 40.537,17.958 40.432,39.864 -0.11,21.908 -18.383,39.578 -40.821,39.47 -5.31,-0.026 -13.73,-2.268 -23.486,-5.668 -1.871,-0.652 -3.787,-1.345 -5.744,-2.075 C 416.316,10.933 410.894,8.76 405.445,6.474 400.667,4.471 395.873,2.383 391.208,0.3 c -1.066,-0.476 -2.125,-0.951 -3.177,-1.426 -4.793,-2.164 -9.406,-4.298 -13.655,-6.298 l 14.481,-6.598 c 2.68,1.245 5.738,2.645 9.008,4.106 1.019,0.457 2.058,0.918 3.115,1.384 4.732,2.082 9.787,4.233 14.746,6.208 5.951,2.371 11.756,4.483 16.688,5.925 2.109,0.616 4.058,1.108 5.789,1.444 1.65,0.32 3.107,0.503 4.31,0.509 14.381,0.068 26.092,-10.894 26.158,-24.489 0.069,-13.595 -11.537,-24.671 -25.918,-24.742 -1.257,-0.006 -2.793,0.178 -4.543,0.518 -1.736,0.337 -3.685,0.829 -5.791,1.441 -4.947,1.439 -10.755,3.544 -16.703,5.905 -4.966,1.97 -10.023,4.116 -14.756,6.192 -1.058,0.465 -2.097,0.925 -3.119,1.38 -3.283,1.465 -6.353,2.867 -9.041,4.112 -1.207,0.563 -2.343,1.094 -3.384,1.582 -3.961,1.862 -7.348,3.484 -7.348,3.484 l -7.899,3.599 -6.464,2.946 -4.192,1.91 -10.873,4.955 -3.113,1.419 -14.494,6.603 -15.698,7.153 -5.101,2.325 -114.765,52.296 -0.161,0.073 L 195.15,64.143 81.002,12.129 75.911,9.809 60.177,2.639 45.641,-3.984 l -3.119,-1.421 -11.36,-5.177 -4.293,-1.955 -8.964,-4.086 c 0,0 -8.803,-4.11 -12.677,-5.935 -1.044,-0.492 -2.175,-1.02 -3.384,-1.583 -2.49,-1.156 -5.302,-2.444 -8.304,-3.789 -1.019,-0.456 -2.057,-0.918 -3.115,-1.384 -4.72,-2.083 -9.783,-4.242 -14.76,-6.23 -5.928,-2.369 -11.728,-4.494 -16.666,-5.95 -2.096,-0.619 -4.037,-1.118 -5.766,-1.464 -1.74,-0.349 -3.266,-0.543 -4.52,-0.55 -14.282,-0.067 -25.914,10.819 -25.981,24.32 -0.065,13.501 11.459,24.502 25.742,24.573 1.306,0.006 2.915,-0.197 4.751,-0.564 1.734,-0.347 3.674,-0.842 5.769,-1.457 4.953,-1.455 10.757,-3.571 16.682,-5.929 4.982,-1.985 10.049,-4.137 14.769,-6.214 1.059,-0.466 2.098,-0.928 3.117,-1.383 3.017,-1.349 5.84,-2.639 8.336,-3.796 l 14.303,6.517 C 12.129,-5.524 7.721,-3.483 3.139,-1.412 2.101,-0.942 1.054,-0.472 0,0 Z" /></g><g
           style="fill:none;fill-opacity:1;stroke:#ffffff;stroke-width:2.83464575;stroke-miterlimit:4;stroke-dasharray:none;stroke-opacity:1"
           transform="translate(504.8066,419.04)"
           id="g1120"><path
             inkscape:connector-curvature="0"
             id="path1118"
             style="fill:none;fill-opacity:1;stroke:#ffffff;stroke-width:2.83464575;stroke-linecap:butt;stroke-linejoin:round;stroke-miterlimit:4;stroke-dasharray:none;stroke-opacity:1"
             d="m 0,0 -105.165,47.92 -0.13,0.059 -0.127,-0.057 L -209.8,0.359 c 3.04,-5.691 4.786,-12.32 4.786,-19.4 0,-7.08 -1.746,-13.709 -4.786,-19.398 l 104.377,-47.563 0.128,-0.06 0.13,0.06 105.167,47.921 C -2.924,-32.472 -4.6,-25.973 -4.6,-19.041 -4.6,-12.108 -2.924,-5.61 0,0 Z" /></g></g></g></g><g
     inkscape:groupmode="layer"
     id="layer2"
     inkscape:label="MTT049741-511-CDD51-PT01 복사 1"
     transform="translate(6.9152846,7.7694716)"
     style="display:none"><rect
       style="fill:none;fill-opacity:1;fill-rule:evenodd;stroke:#5f5f5f;stroke-width:3.77952766;stroke-linejoin:round;stroke-miterlimit:4;stroke-dasharray:none;stroke-opacity:1"
       id="rect1131"
       width="815.39075"
       height="255.04517"
       x="-5.0255208"
       y="-5.8797078" /></g></svg>