<?xml version="1.0" standalone="no"?>
<!DOCTYPE svg PUBLIC "-//W3C//DTD SVG 20010904//EN"
 "http://www.w3.org/TR/2001/REC-SVG-20010904/DTD/svg10.dtd">
<svg version="1.0" xmlns="http://www.w3.org/2000/svg"
 width="1000.000000pt" height="1000.000000pt" viewBox="0 0 1000.000000 1000.000000"
 preserveAspectRatio="xMidYMid meet">

<g transform="translate(0.000000,1000.000000) scale(0.100000,-0.100000)"
fill="#000000" stroke="none">
<path d="M6140 9581 c-14 -4 -43 -17 -65 -29 -25 -13 -697 -678 -1795 -1776
l-1755 -1756 170 -170 170 -170 1753 1752 c1948 1948 1821 1812 1809 1936 -2
32 -12 72 -20 88 -21 40 -72 89 -113 109 -41 19 -120 27 -154 16z"/>
<path d="M4548 6623 l-1508 -1508 1505 -1505 1505 -1505 46 0 c58 0 84 28 84
89 l0 41 -1440 1440 -1440 1440 1440 1440 1440 1440 0 43 c0 57 -33 92 -87 92
-37 0 -73 -35 -1545 -1507z"/>
<path d="M2072 6243 c-23 -9 -44 -64 -38 -97 5 -24 105 -130 474 -499 l467
-467 65 65 65 65 -470 470 c-466 466 -471 470 -510 469 -22 0 -46 -3 -53 -6z"/>
<path d="M2024 5518 c-267 -269 -279 -287 -279 -403 0 -116 13 -135 273 -397
130 -131 241 -238 247 -238 5 0 84 74 175 165 l165 165 -153 152 -152 153 152
152 153 153 -170 170 -170 170 -241 -242z"/>
<path d="M2510 4586 c-255 -255 -468 -476 -473 -490 -20 -61 21 -116 87 -116
40 0 46 5 511 470 l470 470 -65 65 -66 66 -464 -465z"/>
<path d="M2695 4380 l-170 -170 1755 -1755 c1296 -1296 1767 -1761 1804 -1781
163 -89 361 42 344 227 -3 25 -15 66 -27 91 -17 33 -487 509 -1780 1802
l-1756 1756 -170 -170z"/>
</g>
</svg>
