<?xml version="1.0" encoding="UTF-8" standalone="no"?>
<svg
   xmlns:dc="http://purl.org/dc/elements/1.1/"
   xmlns:cc="http://creativecommons.org/ns#"
   xmlns:rdf="http://www.w3.org/1999/02/22-rdf-syntax-ns#"
   xmlns:svg="http://www.w3.org/2000/svg"
   xmlns="http://www.w3.org/2000/svg"
   xmlns:sodipodi="http://sodipodi.sourceforge.net/DTD/sodipodi-0.dtd"
   xmlns:inkscape="http://www.inkscape.org/namespaces/inkscape"
   version="1.0"
   width="468.77991pt"
   height="894.05548pt"
   viewBox="0 0 468.77991 894.05548"
   preserveAspectRatio="xMidYMid meet"
   id="svg851"
   sodipodi:docname="prev-w.svg"
   inkscape:version="0.92.4 (5da689c313, 2019-01-14)">
  <metadata
     id="metadata857">
    <rdf:RDF>
      <cc:Work
         rdf:about="">
        <dc:format>image/svg+xml</dc:format>
        <dc:type
           rdf:resource="http://purl.org/dc/dcmitype/StillImage" />
        <dc:title></dc:title>
      </cc:Work>
    </rdf:RDF>
  </metadata>
  <defs
     id="defs855" />
  <sodipodi:namedview
     pagecolor="#ffffff"
     bordercolor="#666666"
     borderopacity="1"
     objecttolerance="10"
     gridtolerance="10"
     guidetolerance="10"
     inkscape:pageopacity="0"
     inkscape:pageshadow="2"
     inkscape:window-width="1920"
     inkscape:window-height="1017"
     id="namedview853"
     showgrid="false"
     inkscape:zoom="0.63675"
     inkscape:cx="433.99999"
     inkscape:cy="580.60854"
     inkscape:window-x="1272"
     inkscape:window-y="-8"
     inkscape:window-maximized="1"
     inkscape:current-layer="svg851" />
  <g
     transform="matrix(0.1,0,0,-0.1,-174.5,958.59906)"
     id="g849"
     style="fill:#ffffff;fill-opacity:1;stroke:none">
    <path
       d="m 6140,9581 c -14,-4 -43,-17 -65,-29 -25,-13 -697,-678 -1795,-1776 l -1755,-1756 170,-170 170,-170 1753,1752 c 1948,1948 1821,1812 1809,1936 -2,32 -12,72 -20,88 -21,40 -72,89 -113,109 -41,19 -120,27 -154,16 z"
       id="path837"
       style="fill:#ffffff;fill-opacity:1"
       inkscape:connector-curvature="0" />
    <path
       d="M 4548,6623 3040,5115 4545,3610 6050,2105 h 46 c 58,0 84,28 84,89 v 41 L 4740,3675 3300,5115 4740,6555 6180,7995 v 43 c 0,57 -33,92 -87,92 -37,0 -73,-35 -1545,-1507 z"
       id="path839"
       style="fill:#ffffff;fill-opacity:1"
       inkscape:connector-curvature="0" />
    <path
       d="m 2072,6243 c -23,-9 -44,-64 -38,-97 5,-24 105,-130 474,-499 l 467,-467 65,65 65,65 -470,470 c -466,466 -471,470 -510,469 -22,0 -46,-3 -53,-6 z"
       id="path841"
       style="fill:#ffffff;fill-opacity:1"
       inkscape:connector-curvature="0" />
    <path
       d="m 2024,5518 c -267,-269 -279,-287 -279,-403 0,-116 13,-135 273,-397 130,-131 241,-238 247,-238 5,0 84,74 175,165 l 165,165 -153,152 -152,153 152,152 153,153 -170,170 -170,170 z"
       id="path843"
       style="fill:#ffffff;fill-opacity:1"
       inkscape:connector-curvature="0" />
    <path
       d="m 2510,4586 c -255,-255 -468,-476 -473,-490 -20,-61 21,-116 87,-116 40,0 46,5 511,470 l 470,470 -65,65 -66,66 z"
       id="path845"
       style="fill:#ffffff;fill-opacity:1"
       inkscape:connector-curvature="0" />
    <path
       d="M 2695,4380 2525,4210 4280,2455 C 5576,1159 6047,694 6084,674 c 163,-89 361,42 344,227 -3,25 -15,66 -27,91 -17,33 -487,509 -1780,1802 L 2865,4550 Z"
       id="path847"
       style="fill:#ffffff;fill-opacity:1"
       inkscape:connector-curvature="0" />
  </g>
</svg>
